<svg width="25" height="25" viewBox="0 0 25 25" fill="none" xmlns="http://www.w3.org/2000/svg">
<path d="M7.29215 12.5007H9.37549V14.584H7.29215V12.5007ZM21.8755 6.25065V20.834C21.8755 21.3865 21.656 21.9164 21.2653 22.3071C20.8746 22.6978 20.3447 22.9173 19.7922 22.9173H5.20882C4.05257 22.9173 3.12549 21.9798 3.12549 20.834V6.25065C3.12549 5.69812 3.34498 5.16821 3.73568 4.77751C4.12638 4.38681 4.65629 4.16732 5.20882 4.16732H6.25049V2.08398H8.33382V4.16732H16.6672V2.08398H18.7505V4.16732H19.7922C20.3447 4.16732 20.8746 4.38681 21.2653 4.77751C21.656 5.16821 21.8755 5.69812 21.8755 6.25065ZM5.20882 8.33399H19.7922V6.25065H5.20882V8.33399ZM19.7922 20.834V10.4173H5.20882V20.834H19.7922ZM15.6255 14.584V12.5007H17.7088V14.584H15.6255ZM11.4588 14.584V12.5007H13.5422V14.584H11.4588ZM7.29215 16.6673H9.37549V18.7507H7.29215V16.6673ZM15.6255 18.7507V16.6673H17.7088V18.7507H15.6255ZM11.4588 18.7507V16.6673H13.5422V18.7507H11.4588Z" fill="#2D3748" fill-opacity="0.5"/>
</svg>
