<svg width="14" height="14" viewBox="0 0 14 14" fill="none" xmlns="http://www.w3.org/2000/svg">
<g clip-path="url(#clip0_2610_6410)">
<path d="M6.72363 8H0.270508C0.119488 8 -0.00292969 7.5523 -0.00292969 7C-0.00292969 6.4477 0.119488 6 0.270508 6H6.72363C6.87465 6 6.99707 6.4477 6.99707 7C6.99707 7.5523 6.87465 8 6.72363 8Z" fill="#0057A1"/>
<path d="M13.4502 4H0.543945C0.241906 4 -0.00292969 3.5523 -0.00292969 3C-0.00292969 2.4477 0.241906 2 0.543945 2H13.4502C13.7522 2 13.9971 2.4477 13.9971 3C13.9971 3.5523 13.7522 4 13.4502 4Z" fill="#0057A1"/>
<path d="M2.88281 12H0.117188C0.0524649 12 0 11.5523 0 11C0 10.4477 0.0524649 10 0.117188 10H2.88281C2.94754 10 3 10.4477 3 11C3 11.5523 2.94754 12 2.88281 12Z" fill="#0057A1"/>
</g>
<defs>
<clipPath id="clip0_2610_6410">
<rect width="14" height="14" fill="white"/>
</clipPath>
</defs>
</svg>
