<svg width="29" height="20" viewBox="0 0 29 20" fill="none" xmlns="http://www.w3.org/2000/svg">
<path d="M4.69141 8.25C6.2082 8.25 7.44141 7.0168 7.44141 5.5C7.44141 3.9832 6.2082 2.75 4.69141 2.75C3.17461 2.75 1.94141 3.9832 1.94141 5.5C1.94141 7.0168 3.17461 8.25 4.69141 8.25ZM23.9414 8.25C25.4582 8.25 26.6914 7.0168 26.6914 5.5C26.6914 3.9832 25.4582 2.75 23.9414 2.75C22.4246 2.75 21.1914 3.9832 21.1914 5.5C21.1914 7.0168 22.4246 8.25 23.9414 8.25ZM25.3164 9.625H22.5664C21.8102 9.625 21.127 9.93008 20.6285 10.4242C22.3602 11.3738 23.5891 13.0883 23.8555 15.125H26.6914C27.452 15.125 28.0664 14.5105 28.0664 13.75V12.375C28.0664 10.8582 26.8332 9.625 25.3164 9.625ZM14.3164 9.625C16.9762 9.625 19.1289 7.47227 19.1289 4.8125C19.1289 2.15273 16.9762 0 14.3164 0C11.6566 0 9.50391 2.15273 9.50391 4.8125C9.50391 7.47227 11.6566 9.625 14.3164 9.625ZM17.6164 11H17.2598C16.366 11.4297 15.3734 11.6875 14.3164 11.6875C13.2594 11.6875 12.2711 11.4297 11.373 11H11.0164C8.28359 11 6.06641 13.2172 6.06641 15.95V17.1875C6.06641 18.3262 6.99023 19.25 8.12891 19.25H20.5039C21.6426 19.25 22.5664 18.3262 22.5664 17.1875V15.95C22.5664 13.2172 20.3492 11 17.6164 11ZM8.0043 10.4242C7.50586 9.93008 6.82266 9.625 6.06641 9.625H3.31641C1.79961 9.625 0.566406 10.8582 0.566406 12.375V13.75C0.566406 14.5105 1.18086 15.125 1.94141 15.125H4.77305C5.04375 13.0883 6.27266 11.3738 8.0043 10.4242Z" fill="#0057A1"/>
</svg>
