<svg width="23" height="20" viewBox="0 0 23 20" fill="none" xmlns="http://www.w3.org/2000/svg">
<path fill-rule="evenodd" clip-rule="evenodd" d="M20.2578 7.96181L21.0398 8.58781C21.1955 8.70912 21.3927 8.76419 21.5887 8.74106C21.7847 8.71793 21.9637 8.61848 22.0869 8.46426C22.21 8.31004 22.2674 8.11349 22.2467 7.91723C22.2259 7.72096 22.1285 7.5408 21.9758 7.41581L13.8508 0.915807C13.1858 0.38367 12.3595 0.09375 11.5078 0.09375C10.6561 0.09375 9.8298 0.38367 9.16481 0.915807L1.03981 7.41581C0.884396 7.54006 0.784704 7.72096 0.762668 7.91872C0.740633 8.11648 0.798059 8.31489 0.922312 8.47031C1.04657 8.62572 1.22747 8.72542 1.42523 8.74745C1.62298 8.76949 1.8214 8.71206 1.97681 8.58781L2.75781 7.96181V18.2518H1.50781C1.3089 18.2518 1.11813 18.3308 0.977482 18.4715C0.83683 18.6121 0.757812 18.8029 0.757812 19.0018C0.757812 19.2007 0.83683 19.3915 0.977482 19.5321C1.11813 19.6728 1.3089 19.7518 1.50781 19.7518H21.5078C21.7067 19.7518 21.8975 19.6728 22.0381 19.5321C22.1788 19.3915 22.2578 19.2007 22.2578 19.0018C22.2578 18.8029 22.1788 18.6121 22.0381 18.4715C21.8975 18.3308 21.7067 18.2518 21.5078 18.2518H20.2578V7.96181ZM8.75781 6.50181C8.75781 5.77246 9.04754 5.07299 9.56327 4.55726C10.079 4.04154 10.7785 3.75181 11.5078 3.75181C12.2372 3.75181 12.9366 4.04154 13.4524 4.55726C13.9681 5.07299 14.2578 5.77246 14.2578 6.50181C14.2578 7.23115 13.9681 7.93063 13.4524 8.44635C12.9366 8.96208 12.2372 9.25181 11.5078 9.25181C10.7785 9.25181 10.079 8.96208 9.56327 8.44635C9.04754 7.93063 8.75781 7.23115 8.75781 6.50181ZM11.5578 10.2518C12.2218 10.2518 12.7948 10.2518 13.2538 10.3138C13.7458 10.3798 14.2168 10.5288 14.5988 10.9108C14.9808 11.2928 15.1298 11.7638 15.1958 12.2558C15.2538 12.6858 15.2578 13.2158 15.2578 13.8288V18.2518H13.7578V14.0018C13.7578 13.2738 13.7558 12.8018 13.7098 12.4558C13.6658 12.1308 13.5958 12.0288 13.5378 11.9718C13.4808 11.9148 13.3788 11.8438 13.0538 11.7998C12.7068 11.7538 12.2358 11.7518 11.5078 11.7518C10.7798 11.7518 10.3078 11.7538 9.96181 11.7998C9.63681 11.8438 9.53481 11.9148 9.47781 11.9718C9.42081 12.0288 9.34981 12.1308 9.30581 12.4558C9.25981 12.8028 9.25781 13.2738 9.25781 14.0018V18.2518H7.75781V13.9518C7.75781 13.2878 7.75781 12.7148 7.81981 12.2558C7.88581 11.7638 8.03481 11.2928 8.41681 10.9108C8.79881 10.5288 9.27081 10.3798 9.76181 10.3138C10.2208 10.2518 10.7938 10.2518 11.4588 10.2518H11.5568H11.5578Z" fill="#0057A1"/>
</svg>
