<svg width="72" height="72" viewBox="0 0 72 72" fill="none" xmlns="http://www.w3.org/2000/svg">
<g clip-path="url(#clip0_2144_59431)">
<path d="M36 0C16.1177 0 0 16.1177 0 36C0 55.8823 16.1177 72 36 72C55.8823 72 72 55.8823 72 36C72 16.1177 55.8823 0 36 0ZM36 63.3078C20.9424 63.3078 8.69217 51.0576 8.69217 36C8.69217 20.9424 20.9424 8.69217 36 8.69217C51.0576 8.69217 63.3078 20.9424 63.3078 36C63.3078 51.0576 51.0576 63.3078 36 63.3078Z" fill="#EEF5F6"/>
<path d="M20.0389 44.9286C19.8929 44.9286 19.7444 44.8991 19.6021 44.8365C19.0528 44.595 18.8032 43.9538 19.0447 43.4045L25.4965 28.7276H18.2486C17.6484 28.7276 17.1621 28.2412 17.1621 27.6412C17.1621 27.0411 17.6485 26.5547 18.2486 26.5547H27.161C27.528 26.5547 27.8701 26.74 28.0708 27.0473C28.2715 27.3546 28.3034 27.7425 28.1558 28.0785L21.0341 44.2791C20.8552 44.6862 20.4568 44.9286 20.0389 44.9286Z" fill="#0057A1"/>
<path d="M33.8056 45.4457C30.7991 45.4459 28.2383 43.2304 27.8219 40.2455C27.7832 39.9687 27.7637 39.6857 27.7637 39.4043C27.7637 38.8041 28.2501 38.3178 28.8501 38.3178C29.4503 38.3178 29.9366 38.8042 29.9366 39.4043C29.9366 39.5855 29.9493 39.7674 29.974 39.9451C30.2444 41.8812 31.9326 43.308 33.8855 43.2719C35.9022 43.2311 37.5638 41.6235 37.668 39.6115C37.7237 38.538 37.3481 37.5189 36.6104 36.7418C35.8721 35.9642 34.8758 35.536 33.8051 35.536C32.4016 35.536 31.794 35.7608 31.0888 36.0782C30.9958 36.12 30.9398 36.148 30.9289 36.1534C30.5635 36.34 30.1232 36.3053 29.7923 36.0633C29.4613 35.8213 29.2935 35.4139 29.3606 35.0095L30.5665 27.7313C30.6534 27.2069 31.1069 26.8223 31.6385 26.8223H37.7254C38.3256 26.8223 38.8119 27.3087 38.8119 27.9087C38.8119 28.5089 38.3255 28.9952 37.7254 28.9952H32.5598L31.8057 33.547C32.3627 33.427 32.9963 33.3626 33.8052 33.3626C35.4777 33.3626 37.0337 34.0313 38.1864 35.2453C39.3385 36.459 39.9252 38.0495 39.8383 39.7239C39.6752 42.868 37.0795 45.3807 33.9294 45.4441C33.8882 45.4452 33.8467 45.4457 33.8056 45.4457Z" fill="#0057A1"/>
<path d="M44.6802 44.9572C44.54 44.9572 44.3975 44.9299 44.2601 44.8723C43.7068 44.64 43.4465 44.0032 43.6787 43.4499L50.3979 27.4397C50.6302 26.8864 51.2669 26.6263 51.8203 26.8582C52.3736 27.0905 52.6339 27.7273 52.4018 28.2807L45.6826 44.2908C45.5081 44.7068 45.1047 44.9572 44.6802 44.9572Z" fill="#0057A1"/>
<path d="M44.3768 33.702C42.6494 33.702 41.2441 32.148 41.2441 30.2377C41.2441 28.3275 42.6494 26.7734 44.3768 26.7734C46.1043 26.7734 47.5097 28.3275 47.5097 30.2377C47.5097 32.148 46.1043 33.702 44.3768 33.702ZM44.3768 28.9465C43.8567 28.9465 43.4172 29.5378 43.4172 30.2377C43.4172 30.9376 43.8567 31.529 44.3768 31.529C44.897 31.529 45.3366 30.9376 45.3366 30.2377C45.3366 29.5378 44.8972 28.9465 44.3768 28.9465Z" fill="#0057A1"/>
<path d="M51.703 44.9559C49.9756 44.9559 48.5703 43.4019 48.5703 41.4916C48.5703 39.5814 49.9756 38.0273 51.703 38.0273C53.4304 38.0273 54.8359 39.5814 54.8359 41.4916C54.8359 43.4019 53.4304 44.9559 51.703 44.9559ZM51.703 40.2004C51.1828 40.2004 50.7434 40.7918 50.7434 41.4916C50.7434 42.1915 51.1828 42.7829 51.703 42.7829C52.2232 42.7829 52.6628 42.1915 52.6628 41.4916C52.6628 40.7918 52.2232 40.2004 51.703 40.2004Z" fill="#0057A1"/>
<path d="M36 0V8.69217C51.0576 8.69217 63.3078 20.9424 63.3078 36C63.3078 51.0576 51.0576 63.3078 36 63.3078C20.9424 63.3078 8.69217 51.0576 8.69217 36H0C0 55.8823 16.1177 72 36 72C55.8823 72 72 55.8823 72 36C72 16.1177 55.8823 0 36 0Z" fill="#0057A1"/>
<path d="M36.0008 0V0.463922C53.128 3.2355 66.2061 18.0904 66.2061 36C66.2061 54.9069 51.6309 70.4095 33.1035 71.8851C34.0592 71.9612 35.0254 72 36.0008 72C55.8831 72 72.0008 55.8823 72.0008 36C72.0008 16.1177 55.8831 0 36.0008 0Z" fill="#0057A1"/>
<path d="M36.0272 68.74C36.0087 68.7402 35.9905 68.7402 35.9718 68.74C35.9716 68.74 35.9713 68.74 35.9709 68.74C28.0309 68.733 20.3696 65.8361 14.3987 60.5833C8.4985 55.3931 4.6562 48.2823 3.57522 40.5559C3.56172 40.4879 3.55469 40.4176 3.55469 40.3456C3.55469 39.7454 4.03956 39.2591 4.63961 39.2591H4.64284C5.18552 39.2591 5.64508 39.6595 5.71919 40.1972C6.71706 47.4312 10.3092 54.0918 15.8339 58.9517C21.4087 63.8558 28.5608 66.5603 35.9728 66.5669H36.0263C52.8515 66.5519 66.5519 52.8515 66.5669 36.0263C66.5669 36.0174 66.5671 36.0084 66.5672 35.9995C66.5671 35.9907 66.5669 35.9817 66.5669 35.9728C66.5603 28.5608 63.8558 21.4087 58.9517 15.8339C54.0918 10.3092 47.4311 6.71706 40.1972 5.71919C39.6595 5.64508 39.2591 5.18552 39.2591 4.64284C39.2591 4.04266 39.7455 3.55469 40.3456 3.55469C40.4183 3.55469 40.4894 3.56186 40.5582 3.5755C48.284 4.65691 55.3933 8.49878 60.5832 14.3987C65.8359 20.3698 68.7328 28.031 68.7399 35.9709C68.7399 35.9804 68.7397 35.9901 68.7396 35.9995C68.7397 36.009 68.7399 36.0187 68.7399 36.0282C68.7237 54.0495 54.0493 68.7238 36.0281 68.74C36.028 68.74 36.0275 68.74 36.0272 68.74Z" fill="white"/>
</g>
<defs>
<clipPath id="clip0_2144_59431">
<rect width="72" height="72" fill="white"/>
</clipPath>
</defs>
</svg>
