<svg width="83" height="60" viewBox="0 0 83 60" fill="none" xmlns="http://www.w3.org/2000/svg">
<path d="M27.69 21.35C29.61 19.69 31.12 18.33 32.22 17.27C33.34 16.19 34.27 15.07 35.01 13.91C35.75 12.75 36.12 11.59 36.12 10.43C36.12 9.23 35.83 8.29 35.25 7.61C34.69 6.93 33.8 6.59 32.58 6.59C31.4 6.59 30.48 6.97 29.82 7.73C29.18 8.47 28.84 9.47 28.8 10.73H25.5C25.56 8.45 26.24 6.71 27.54 5.51C28.86 4.29 30.53 3.68 32.55 3.68C34.73 3.68 36.43 4.28 37.65 5.48C38.89 6.68 39.51 8.28 39.51 10.28C39.51 11.72 39.14 13.11 38.4 14.45C37.68 15.77 36.81 16.96 35.79 18.02C34.79 19.06 33.51 20.27 31.95 21.65L30.6 22.85H40.11V25.7H25.53V23.21L27.69 21.35ZM43.1145 14.78C43.1145 11.32 43.6945 8.62 44.8545 6.68C46.0345 4.72 48.0545 3.74 50.9145 3.74C53.7745 3.74 55.7845 4.72 56.9445 6.68C58.1245 8.62 58.7145 11.32 58.7145 14.78C58.7145 18.28 58.1245 21.02 56.9445 23C55.7845 24.96 53.7745 25.94 50.9145 25.94C48.0545 25.94 46.0345 24.96 44.8545 23C43.6945 21.02 43.1145 18.28 43.1145 14.78ZM55.3545 14.78C55.3545 13.16 55.2445 11.79 55.0245 10.67C54.8245 9.55 54.4045 8.64 53.7645 7.94C53.1245 7.22 52.1745 6.86 50.9145 6.86C49.6545 6.86 48.7045 7.22 48.0645 7.94C47.4245 8.64 46.9945 9.55 46.7745 10.67C46.5745 11.79 46.4745 13.16 46.4745 14.78C46.4745 16.46 46.5745 17.87 46.7745 19.01C46.9745 20.15 47.3945 21.07 48.0345 21.77C48.6945 22.47 49.6545 22.82 50.9145 22.82C52.1745 22.82 53.1245 22.47 53.7645 21.77C54.4245 21.07 54.8545 20.15 55.0545 19.01C55.2545 17.87 55.3545 16.46 55.3545 14.78Z" fill="black"/>
<path d="M10.08 42.88V54H8.256V49.136H3.024V54H1.2V42.88H3.024V47.648H8.256V42.88H10.08ZM14.2893 42.88V49.968C14.2893 50.8107 14.5079 51.4453 14.9453 51.872C15.3933 52.2987 16.0119 52.512 16.8013 52.512C17.6013 52.512 18.2199 52.2987 18.6573 51.872C19.1053 51.4453 19.3293 50.8107 19.3293 49.968V42.88H21.1533V49.936C21.1533 50.8427 20.9559 51.6107 20.5613 52.24C20.1666 52.8693 19.6386 53.3387 18.9773 53.648C18.3159 53.9573 17.5853 54.112 16.7853 54.112C15.9853 54.112 15.2546 53.9573 14.5933 53.648C13.9426 53.3387 13.4253 52.8693 13.0413 52.24C12.6573 51.6107 12.4653 50.8427 12.4653 49.936V42.88H14.2893ZM29.4801 48.288C30.0775 48.3947 30.5841 48.7093 31.0001 49.232C31.4161 49.7547 31.6241 50.3467 31.6241 51.008C31.6241 51.5733 31.4748 52.0853 31.1761 52.544C30.8881 52.992 30.4668 53.3493 29.9121 53.616C29.3575 53.872 28.7121 54 27.9761 54H23.5281V42.88H27.7681C28.5255 42.88 29.1761 43.008 29.7201 43.264C30.2641 43.52 30.6748 43.8667 30.9521 44.304C31.2295 44.7307 31.3681 45.2107 31.3681 45.744C31.3681 46.384 31.1975 46.9173 30.8561 47.344C30.5148 47.7707 30.0561 48.0853 29.4801 48.288ZM25.3521 47.552H27.6081C28.2055 47.552 28.6695 47.4187 29.0001 47.152C29.3415 46.8747 29.5121 46.48 29.5121 45.968C29.5121 45.4667 29.3415 45.0773 29.0001 44.8C28.6695 44.512 28.2055 44.368 27.6081 44.368H25.3521V47.552ZM27.8161 52.512C28.4348 52.512 28.9201 52.3627 29.2721 52.064C29.6241 51.7653 29.8001 51.3493 29.8001 50.816C29.8001 50.272 29.6135 49.84 29.2401 49.52C28.8668 49.2 28.3708 49.04 27.7521 49.04H25.3521V52.512H27.8161ZM32.9983 48.416C32.9983 47.328 33.2489 46.352 33.7503 45.488C34.2623 44.624 34.9503 43.952 35.8143 43.472C36.6889 42.9813 37.6436 42.736 38.6783 42.736C39.8623 42.736 40.9129 43.0293 41.8303 43.616C42.7583 44.192 43.4303 45.0133 43.8463 46.08H41.6543C41.3663 45.4933 40.9663 45.056 40.4543 44.768C39.9423 44.48 39.3503 44.336 38.6783 44.336C37.9423 44.336 37.2863 44.5013 36.7103 44.832C36.1343 45.1627 35.6809 45.6373 35.3503 46.256C35.0303 46.8747 34.8703 47.5947 34.8703 48.416C34.8703 49.2373 35.0303 49.9573 35.3503 50.576C35.6809 51.1947 36.1343 51.6747 36.7103 52.016C37.2863 52.3467 37.9423 52.512 38.6783 52.512C39.3503 52.512 39.9423 52.368 40.4543 52.08C40.9663 51.792 41.3663 51.3547 41.6543 50.768H43.8463C43.4303 51.8347 42.7583 52.656 41.8303 53.232C40.9129 53.808 39.8623 54.096 38.6783 54.096C37.6329 54.096 36.6783 53.856 35.8143 53.376C34.9503 52.8853 34.2623 52.208 33.7503 51.344C33.2489 50.48 32.9983 49.504 32.9983 48.416ZM51.0533 54.112C50.0186 54.112 49.0639 53.872 48.1893 53.392C47.3253 52.9013 46.6373 52.224 46.1253 51.36C45.6239 50.4853 45.3733 49.504 45.3733 48.416C45.3733 47.328 45.6239 46.352 46.1253 45.488C46.6373 44.624 47.3253 43.952 48.1893 43.472C49.0639 42.9813 50.0186 42.736 51.0533 42.736C52.0986 42.736 53.0533 42.9813 53.9173 43.472C54.7919 43.952 55.4799 44.624 55.9813 45.488C56.4826 46.352 56.7333 47.328 56.7333 48.416C56.7333 49.504 56.4826 50.4853 55.9813 51.36C55.4799 52.224 54.7919 52.9013 53.9173 53.392C53.0533 53.872 52.0986 54.112 51.0533 54.112ZM51.0533 52.528C51.7893 52.528 52.4453 52.3627 53.0213 52.032C53.5973 51.6907 54.0453 51.2107 54.3653 50.592C54.6959 49.9627 54.8613 49.2373 54.8613 48.416C54.8613 47.5947 54.6959 46.8747 54.3653 46.256C54.0453 45.6373 53.5973 45.1627 53.0213 44.832C52.4453 44.5013 51.7893 44.336 51.0533 44.336C50.3173 44.336 49.6613 44.5013 49.0853 44.832C48.5093 45.1627 48.0559 45.6373 47.7253 46.256C47.4053 46.8747 47.2453 47.5947 47.2453 48.416C47.2453 49.2373 47.4053 49.9627 47.7253 50.592C48.0559 51.2107 48.5093 51.6907 49.0853 52.032C49.6613 52.3627 50.3173 52.528 51.0533 52.528ZM60.3521 42.88V54H58.5281V42.88H60.3521ZM71.8829 54H70.0589L64.5709 45.696V54H62.7469V42.864H64.5709L70.0589 51.152V42.864H71.8829V54ZM77.9421 54.112C77.1955 54.112 76.5235 53.984 75.9261 53.728C75.3288 53.4613 74.8595 53.088 74.5181 52.608C74.1768 52.128 74.0061 51.568 74.0061 50.928H75.9581C76.0008 51.408 76.1875 51.8027 76.5181 52.112C76.8595 52.4213 77.3341 52.576 77.9421 52.576C78.5715 52.576 79.0621 52.4267 79.4141 52.128C79.7661 51.8187 79.9421 51.424 79.9421 50.944C79.9421 50.5707 79.8301 50.2667 79.6061 50.032C79.3928 49.7973 79.1208 49.616 78.7901 49.488C78.4701 49.36 78.0221 49.2213 77.4461 49.072C76.7208 48.88 76.1288 48.688 75.6701 48.496C75.2221 48.2933 74.8381 47.984 74.5181 47.568C74.1981 47.152 74.0381 46.5973 74.0381 45.904C74.0381 45.264 74.1981 44.704 74.5181 44.224C74.8381 43.744 75.2861 43.376 75.8621 43.12C76.4381 42.864 77.1048 42.736 77.8621 42.736C78.9395 42.736 79.8195 43.008 80.5021 43.552C81.1955 44.0853 81.5795 44.8213 81.6541 45.76H79.6381C79.6061 45.3547 79.4141 45.008 79.0621 44.72C78.7101 44.432 78.2461 44.288 77.6701 44.288C77.1475 44.288 76.7208 44.4213 76.3901 44.688C76.0595 44.9547 75.8941 45.3387 75.8941 45.84C75.8941 46.1813 75.9955 46.464 76.1981 46.688C76.4115 46.9013 76.6781 47.072 76.9981 47.2C77.3181 47.328 77.7555 47.4667 78.3101 47.616C79.0461 47.8187 79.6435 48.0213 80.1021 48.224C80.5715 48.4267 80.9661 48.7413 81.2861 49.168C81.6168 49.584 81.7821 50.144 81.7821 50.848C81.7821 51.4133 81.6275 51.9467 81.3181 52.448C81.0195 52.9493 80.5768 53.3547 79.9901 53.664C79.4141 53.9627 78.7315 54.112 77.9421 54.112Z" fill="black"/>
</svg>
