<svg width="60" height="60" viewBox="0 0 60 60" fill="none" xmlns="http://www.w3.org/2000/svg">
<circle cx="30" cy="30" r="30" fill="#FF7900"/>
<path d="M46.303 15.2803C46.25 15.2803 46.25 15.2803 46.1969 15.2272C46.0909 15.2272 45.9848 15.1742 45.9318 15.1742H15.1212C15.0151 15.1742 14.9091 15.1742 14.856 15.2272C14.803 15.2272 14.803 15.2272 14.75 15.2803C14.1136 15.4393 13.5303 15.9166 13.5303 16.2878V38.1893C13.5303 39.7272 14.3257 40.3106 15.1212 40.3106H26.3106L25.1969 44.7121H22.4924C22.1742 44.7121 21.9621 44.9242 21.9621 45.2424C21.9621 45.5606 22.1742 45.7727 22.4924 45.7727H38.5075C38.8257 45.7727 39.0378 45.5606 39.0378 45.2424C39.0378 44.9242 38.8257 44.7121 38.5075 44.7121H35.803L34.6894 40.3106H45.8788C46.6212 40.3106 47.4697 39.7272 47.4697 38.1893V16.2878C47.4697 15.9166 46.8863 15.4393 46.303 15.2803ZM30.553 38.2424H30.4469C30.1288 38.2424 29.9166 38.0303 29.9166 37.7121C29.9166 37.3939 30.1288 37.1818 30.4469 37.1818H30.553C30.8712 37.1818 31.0833 37.3939 31.0833 37.7121C31.0833 38.0303 30.8712 38.2424 30.553 38.2424ZM46.4091 35.5909H14.5909V16.8181C14.5909 16.5 14.856 16.2878 15.1212 16.2878H45.8788C46.1439 16.2878 46.4091 16.5 46.4091 16.8181V35.5909Z" fill="white"/>
<path d="M35.6438 26.3635C35.6438 23.5529 33.3635 21.2196 30.4999 21.2196C27.6893 21.2196 25.356 23.4999 25.356 26.3635C25.356 29.1741 27.6363 31.5075 30.4999 31.5075C31.1363 31.5075 31.7196 31.4014 32.3029 31.1893L33.6817 32.1969C33.7878 32.2499 33.8938 32.3029 33.9999 32.3029C34.159 32.3029 34.3181 32.1969 34.4241 32.0908C34.9544 31.3484 34.9544 30.3938 34.5302 29.5984C35.2196 28.6438 35.6438 27.5302 35.6438 26.3635ZM30.765 29.3863C30.659 29.4923 30.5529 29.5454 30.3938 29.5454C30.2347 29.5454 30.1287 29.4923 30.0226 29.3863C29.9696 29.3332 29.9166 29.2802 29.9166 29.2272C29.8635 29.1741 29.8635 29.1211 29.8635 29.0151C29.8635 28.856 29.9166 28.7499 30.0226 28.6438C30.1287 28.5378 30.3408 28.4848 30.4999 28.4848C30.5529 28.4848 30.5529 28.4848 30.606 28.5378C30.659 28.5378 30.659 28.5908 30.712 28.5908C30.765 28.5908 30.765 28.6438 30.8181 28.6438C30.9241 28.7499 30.9772 28.856 30.9772 29.0151C30.9241 29.1211 30.8711 29.2802 30.765 29.3863ZM30.9241 26.5757L30.9772 27.5302C30.9772 27.8484 30.765 28.0605 30.4469 28.0605C30.1287 28.0605 29.9166 27.8484 29.9166 27.5302V26.5757C29.9166 26.1514 30.1817 25.7802 30.606 25.6211C30.8181 25.5681 30.9241 25.356 30.9241 25.1438C30.8711 24.9317 30.712 24.7726 30.5529 24.7196C30.3938 24.6666 30.2347 24.7726 30.1287 24.8787C29.9696 25.0908 29.5984 25.1438 29.3863 24.9317C29.1741 24.7726 29.1211 24.4014 29.3332 24.1893C29.7044 23.7651 30.2347 23.5529 30.765 23.659C31.4544 23.7651 31.9317 24.2954 32.0378 24.9848C31.9847 25.6741 31.5605 26.3105 30.9241 26.5757Z" fill="white"/>
<path d="M41.371 27.6894V27.3182C41.371 27 41.1589 26.7879 40.8407 26.7879H40.0982C39.9392 21.6439 35.6967 17.5076 30.4998 17.5076C25.3028 17.5076 21.0604 21.6439 20.9013 26.8409H20.1589C19.8937 26.8409 19.6286 27.053 19.6286 27.3712V27.7424C18.3028 27.8485 17.2422 28.9621 17.2422 30.2879C17.2422 31.6667 18.3028 32.7273 19.5755 32.8864V33.2576C19.5755 33.5758 19.8407 33.7879 20.1058 33.7879H22.6513C22.9164 33.7879 23.1816 33.5758 23.1816 33.2576V27.3712C23.1816 27.053 22.9164 26.8409 22.6513 26.8409H21.9089C22.0679 22.2803 25.8331 18.5682 30.4467 18.5682C35.0604 18.5682 38.8255 22.2273 38.9846 26.8409H38.2422C37.924 26.8409 37.7119 27.053 37.7119 27.3712V33.2576C37.7119 33.5758 37.924 33.7879 38.2422 33.7879H40.7876C41.1058 33.7879 41.3179 33.5758 41.3179 33.2576V32.8864C42.7498 32.8864 43.8634 31.7197 43.8634 30.2879C43.8634 28.8561 42.8028 27.7424 41.371 27.6894ZM19.6286 31.8258C18.8861 31.7197 18.3558 31.0833 18.3558 30.2879C18.3558 29.5454 18.9392 28.9091 19.6286 28.75V31.8258ZM41.371 31.8788V28.803C42.2195 28.803 42.8558 29.4924 42.8558 30.3409C42.8558 31.1364 42.2195 31.8258 41.371 31.8788Z" fill="white"/>
</svg>
