<svg width="411" height="413" viewBox="0 0 411 413" fill="none" xmlns="http://www.w3.org/2000/svg">
<path d="M301.606 399.086C335.251 399.086 362.526 394.028 362.526 387.788C362.526 381.548 335.251 376.49 301.606 376.49C267.96 376.49 240.686 381.548 240.686 387.788C240.686 394.028 267.96 399.086 301.606 399.086Z" fill="#DFDFEB"/>
<path d="M239.495 263.871H10.9119C5.30191 263.871 0.753906 259.323 0.753906 253.713V110.015C0.753906 104.405 5.30191 99.8574 10.9119 99.8574H239.495C245.105 99.8574 249.653 104.405 249.653 110.015V253.713C249.653 259.323 245.105 263.871 239.495 263.871Z" fill="#D3DDF7"/>
<path d="M239.495 99.8574H10.9119C5.30191 99.8574 0.753906 104.405 0.753906 110.015V119.999H249.652V110.015C249.653 104.405 245.105 99.8574 239.495 99.8574Z" fill="#0057A1"/>
<path d="M208.367 113.846C210.353 113.846 211.964 112.236 211.964 110.249C211.964 108.263 210.353 106.652 208.367 106.652C206.38 106.652 204.77 108.263 204.77 110.249C204.77 112.236 206.38 113.846 208.367 113.846Z" stroke="white" stroke-miterlimit="10" stroke-linejoin="round"/>
<path d="M221.816 113.846C223.802 113.846 225.413 112.236 225.413 110.249C225.413 108.263 223.802 106.652 221.816 106.652C219.829 106.652 218.219 108.263 218.219 110.249C218.219 112.236 219.829 113.846 221.816 113.846Z" stroke="white" stroke-miterlimit="10" stroke-linejoin="round"/>
<path d="M235.265 113.846C237.252 113.846 238.862 112.236 238.862 110.249C238.862 108.263 237.252 106.652 235.265 106.652C233.278 106.652 231.668 108.263 231.668 110.249C231.668 112.236 233.278 113.846 235.265 113.846Z" stroke="white" stroke-miterlimit="10" stroke-linejoin="round"/>
<path d="M102.814 150.126C99.9767 150.126 97.2307 148.231 95.0527 146.413L92.4007 144.2C90.7607 142.831 88.8117 142.098 86.8147 142.098H64.1897C62.1367 142.098 60.4727 143.762 60.4727 145.815V150.126V229.148C60.4727 231.904 62.7067 234.137 65.4617 234.137H179.67C182.426 234.137 184.659 231.903 184.659 229.148V155.116C184.659 152.36 182.425 150.127 179.67 150.127H102.814V150.126Z" fill="#0057A1"/>
<path d="M175.564 166.112H143.256C141.816 166.112 140.648 164.944 140.648 163.504C140.648 162.064 141.816 160.896 143.256 160.896H175.564C177.004 160.896 178.172 162.064 178.172 163.504C178.172 164.945 177.004 166.112 175.564 166.112Z" stroke="white" stroke-miterlimit="10"/>
<path d="M368.123 143.901C368.123 143.901 373.859 157.391 374.599 161.305C376.866 173.285 387.632 206.231 391.274 210.36C391.274 210.36 398.074 211.089 401.473 209.146C401.473 209.146 392.973 155.234 389.331 147.949C385.688 140.664 383.26 128.764 383.26 128.764L368.123 143.901Z" fill="#BA6F4C"/>
<path d="M400.644 207.273C396.883 204.144 389.294 206.002 387.971 210.712C386.894 214.546 386.856 216.706 386.758 217.36C386.567 218.639 381.913 226.555 382.805 228.179C383.45 229.355 386.741 225.659 388.388 223.065C388.727 222.531 389.546 222.735 389.602 223.365C389.914 226.887 390.606 233.932 391.213 234.808C392.026 235.981 394.983 240.949 395.86 240.411C396.737 239.872 395.753 236.413 394.983 234.098C394.213 231.783 395.161 226.632 395.161 226.632C395.161 226.632 399.066 238.387 400.72 240.51C403.184 243.672 404.004 238.511 404.004 238.511C405.482 240.128 406.918 236.279 406.662 235.07C406.157 232.681 402.456 224.218 403.111 224.528C403.766 224.838 407.941 233.778 409.836 234.039C411.731 234.301 410.813 231.074 409.75 228.938C408.687 226.803 405.808 220.655 405.808 220.655C405.808 220.655 404.844 214.832 401.266 208.575C401.236 208.525 400.688 207.31 400.644 207.273Z" fill="#BA6F4C"/>
<path d="M403.926 238.226L398.799 226.305" stroke="black" stroke-miterlimit="10" stroke-linecap="round"/>
<path d="M365.419 121.437L311.746 119.245V40.0497L339.997 35.9707L365.419 121.437Z" fill="black"/>
<path d="M339.16 35.2988C339.16 35.2988 349.649 59.9548 358.639 93.1918" stroke="black" stroke-miterlimit="10" stroke-linecap="round"/>
<path d="M244.215 133.716C244.215 133.716 256.844 139.329 286.137 117.228L273.683 103.371L244.215 133.716Z" fill="#BA6F4C"/>
<path d="M336.215 77.9376C336.749 77.8446 340.031 80.9176 340.612 81.2726C346.2 84.6856 350.833 85.1816 357.14 86.3806C369.58 88.7456 378.351 108.575 379.616 112.717C381.111 117.612 383.706 126.03 385.201 130.925C385.201 130.925 382.749 144.547 366.998 144.241L359.105 127.402C359.105 127.402 350.159 147.573 349.633 149.152C349.107 150.731 355.071 170.376 355.071 170.376C355.071 170.376 308.063 188.443 280.7 178.708C280.7 178.708 289.981 143.246 287.487 142.095C285.126 141.005 280.222 136.737 286.137 117.229C286.137 117.229 276.227 111.441 273.859 96.1796C273.859 96.1796 286.751 84.2526 294.907 83.9886C303.062 83.7256 336.202 77.9396 336.215 77.9376Z" fill="#0057A1"/>
<path d="M316.482 91.4875C316.482 91.4875 319.902 100.565 330.295 95.4345C338.856 91.2085 341.698 84.3165 342.436 82.0135C338.864 79.9745 336.214 77.9375 336.214 77.9375C336.214 77.9375 321.646 80.4805 309.448 82.2725C308.788 83.6415 302.899 96.4715 316.482 91.4875Z" fill="white"/>
<path d="M335.296 60.9668L336.217 77.9368C336.217 77.9368 328.324 89.9078 318.852 88.5928L317.01 77.8058L335.296 60.9668Z" fill="#BA6F4C"/>
<path d="M319.256 257.551L324.898 328.59L326.129 374.983C326.129 374.983 336.374 381.609 341.653 371.901C341.653 371.901 351.121 323.752 350.058 307.199C348.995 290.647 350.862 271.162 350.862 271.162L319.256 257.551Z" fill="#BA6F4C"/>
<path d="M279.188 367.881C279.188 367.881 250.253 392.788 252.857 392.788C255.461 392.788 267.759 391.034 275.716 389.105C283.673 387.176 286.856 382.089 286.856 382.089L287.435 387L292.933 386.298C292.933 386.298 299.154 373.143 294.814 365.776C290.473 358.409 279.188 367.881 279.188 367.881Z" fill="black"/>
<path d="M283.238 383.317L287.434 387L289.459 380.773L286.204 379.984L283.238 383.317Z" fill="black"/>
<path d="M326.09 368.845C326.09 368.845 315.282 401.187 318.929 401.602C325.873 402.391 334.301 394.717 336.905 389.806C339.509 384.895 339.22 377.177 339.22 377.177L336.76 382.965H341.824C341.824 382.965 344.573 380.334 342.403 367.705C342.403 367.705 326.09 383.71 326.09 368.845Z" fill="black"/>
<path d="M281.357 255.271L279.188 367.88C279.188 367.88 289.17 374.721 294.812 365.775C294.812 365.775 306.097 320.521 305.663 304.734C305.229 288.948 307.833 270.53 307.833 270.53L281.357 255.271Z" fill="#BA6F4C"/>
<path d="M285.435 157.396C285.435 157.396 298.064 180.549 352.264 160.553C352.264 160.553 373.312 215.279 357 276.32C357 276.32 310.693 297.895 266.492 272.11C266.492 272.11 273.859 196.336 285.435 157.396Z" fill="black"/>
<path d="M286.138 80.043C286.138 80.043 246.058 108.283 243.076 113.194C240.094 118.105 233.867 129.331 242.637 133.541C251.407 137.751 286.225 99.425 294.644 86.445L286.138 80.043Z" fill="#BA6F4C"/>
<path d="M250.004 132.137C250.004 132.137 262.502 125.34 277.411 108.326" stroke="black" stroke-miterlimit="10" stroke-linecap="round"/>
<path d="M288.213 142.548C288.213 142.548 321.393 158.448 341.915 140.908" stroke="black" stroke-miterlimit="10" stroke-linecap="round"/>
<path d="M359.106 127.402L351.965 116.213" stroke="black" stroke-miterlimit="10" stroke-linecap="round"/>
<path d="M286.139 117.229L290.173 109.16" stroke="black" stroke-miterlimit="10" stroke-linecap="round"/>
<path d="M307.722 71.0653C305.468 70.8503 303.321 73.2123 302.462 72.9433C301.778 72.7293 300.856 69.4873 300.51 68.1773C301.812 60.5713 300.918 54.6703 299.135 56.2513C299.04 56.3363 298.928 56.5133 298.811 56.7413C298.548 54.3283 297.863 53.1213 296.935 53.9443C296.681 54.1693 296.32 55.0133 295.997 55.8873C295.718 53.6143 295.045 52.5023 294.144 53.3003C293.7 53.6933 292.936 55.9633 292.605 56.9933C292.427 56.7763 292.166 56.6843 291.836 56.5743C290.548 56.1453 287.578 67.2723 287.435 67.8453C287.292 68.4183 284.143 80.8693 284.143 80.8693C282.998 85.3773 291.996 87.4463 294.644 86.4453C297.292 85.4433 303.321 78.9373 303.321 78.9373C303.314 78.9253 303.304 78.9143 303.297 78.9023C303.505 78.6013 303.809 78.1423 304.233 77.4523C305.145 75.9673 309.761 72.2463 309.868 71.9243C309.975 71.6023 309.976 71.2793 307.722 71.0653Z" fill="#BA6F4C"/>
<path d="M309.869 71.9238C309.976 71.6018 309.976 71.2798 307.722 71.0648C305.468 70.8498 303.321 73.2118 302.462 72.9428C301.778 72.7288 300.856 69.4868 300.51 68.1768C301.812 60.5708 300.918 54.6698 299.135 56.2508C299.04 56.3358 298.928 56.5128 298.811 56.7408C298.548 54.3278 297.863 53.1208 296.935 53.9438C296.681 54.1688 296.32 55.0128 295.997 55.8868C295.866 54.8238 295.647 54.0278 295.361 53.5488C295.067 61.3138 295.927 73.0868 302.82 79.4678C303.132 79.1408 303.322 78.9368 303.322 78.9368C303.315 78.9248 303.305 78.9138 303.298 78.9018C303.506 78.6008 303.81 78.1418 304.234 77.4518C305.146 75.9678 309.762 72.2458 309.869 71.9238Z" fill="black"/>
<path d="M333.257 64.1898L335.296 60.9668L317.01 77.8058L318.405 85.9768C325.998 84.7358 329.553 72.4678 333.257 64.1898Z" fill="black"/>
<path d="M298.318 45.1342C298.318 45.1342 292.91 75.8742 310.744 82.0832C328.579 88.2922 334.852 58.9582 334.89 48.6752C334.929 38.3922 330.143 33.0012 317.444 31.7162C298.658 29.8142 298.318 45.1342 298.318 45.1342Z" fill="#BA6F4C"/>
<path d="M338.851 33.2696C335.202 27.9906 329.842 25.0866 316.402 25.3306C306.172 25.5166 299.751 32.3476 297.569 35.8936C296.862 37.0426 295.115 40.2896 298.479 43.7756C298.479 43.7756 298.591 41.3106 300.866 38.5656C300.866 38.5656 322.154 50.1036 330.66 48.4096L332.688 56.3866C332.688 56.3866 335.566 52.3026 338.523 50.9816C338.523 50.9816 342.5 38.5496 338.851 33.2696Z" fill="black"/>
<path d="M342.23 58.6532C340.845 62.6662 337.456 65.1582 334.66 64.2192C331.864 63.2812 330.721 59.2672 332.106 55.2542C333.491 51.2412 336.88 48.7492 339.676 49.6882C342.471 50.6262 343.615 54.6402 342.23 58.6532Z" fill="#BA6F4C"/>
<path d="M315.956 58.3187C315.939 59.3737 315.382 60.2227 314.711 60.2127C314.04 60.2037 313.509 59.3397 313.526 58.2847C313.543 57.2287 314.1 56.3807 314.771 56.3907C315.442 56.3997 315.972 57.2627 315.956 58.3187Z" fill="black"/>
<path d="M301.891 58.2741C301.93 59.2671 301.471 60.0921 300.866 60.1171C300.26 60.1421 299.737 59.3581 299.698 58.3651C299.659 57.3721 300.118 56.5471 300.723 56.5221C301.328 56.4961 301.851 57.2811 301.891 58.2741Z" fill="black"/>
<path d="M320.494 50.2439C320.494 50.2439 315.617 50.9629 315.592 46.3789" stroke="black" stroke-miterlimit="10" stroke-linecap="round"/>
<path d="M304.22 48.8125C304.22 48.8125 302.719 52.9735 299.262 50.2835" stroke="black" stroke-miterlimit="10" stroke-linecap="round"/>
<path d="M315.695 75.3356C315.695 75.3356 317.701 68.9766 322.383 73.0006L315.695 75.3356Z" fill="black"/>
<path d="M339.606 54.9102C339.606 54.9102 336.585 51.9502 334.51 56.8702C334.51 56.8702 336.251 58.9752 334.97 60.4552C334.97 60.4552 336.785 60.9932 337.8 59.4272" stroke="black" stroke-miterlimit="10" stroke-linecap="round" stroke-linejoin="round"/>
<path d="M338.095 56.7468C338.095 56.7468 337.99 55.6168 336.83 54.2598" stroke="black" stroke-miterlimit="10" stroke-linecap="round" stroke-linejoin="round"/>
<path d="M303.729 62.2031C303.078 62.9271 302.894 63.8291 303.134 64.8321C303.371 65.8231 304.322 66.4771 305.326 66.5221" stroke="black" stroke-miterlimit="10" stroke-linecap="round"/>
<path d="M336.872 64.2222C336.872 65.7302 335.65 66.9522 334.142 66.9522C332.634 66.9522 331.412 65.7302 331.412 64.2222C331.412 62.7142 332.634 61.4922 334.142 61.4922C335.65 61.4922 336.872 62.7152 336.872 64.2222Z" fill="white"/>
<path d="M291.049 84.6035C291.049 84.6035 292.101 86.8835 294.645 86.4455" stroke="black" stroke-miterlimit="10" stroke-linecap="round"/>
<path d="M292.605 56.9941C292.605 56.9941 294.512 58.0081 291.421 68.9271C291.421 68.9271 293.329 75.8341 292.802 77.1491C292.276 78.4641 289.645 80.6571 288.855 80.7451" stroke="black" stroke-miterlimit="10" stroke-linecap="round"/>
<path d="M297.979 73.8164C297.979 73.8164 295.348 76.7984 295.26 80.9204" stroke="black" stroke-miterlimit="10" stroke-linecap="round"/>
<path d="M295.998 55.8867C295.998 55.8867 296.619 64.2557 295.303 68.7937" stroke="black" stroke-miterlimit="10" stroke-linecap="round"/>
<path d="M212.514 405.211C212.514 409.096 203.461 412.246 192.294 412.246C181.127 412.246 172.074 409.096 172.074 405.211C172.074 401.326 181.127 398.176 192.294 398.176C203.462 398.176 212.514 401.326 212.514 405.211Z" fill="#DFDFEB"/>
<path d="M191.841 300.57C191.841 300.57 185.726 301.142 187.807 285.31C189.784 270.27 197.366 259.306 197.945 259.262C197.945 259.262 208.849 274.903 202.014 288.467C195.18 302.031 191.841 300.57 191.841 300.57Z" fill="#7E9E6E"/>
<path d="M241.89 277.68C241.89 277.68 227.884 294.467 193.795 306.294C193.795 306.294 193.585 301.819 205.374 290.988C217.162 280.158 243.521 272.542 241.89 277.68Z" fill="#7E9E6E"/>
<path d="M241.891 277.682C241.891 277.682 215.184 281.874 193.796 306.296C193.796 306.296 191.695 308.967 191.434 314.713" stroke="black" stroke-miterlimit="10" stroke-linecap="round"/>
<path d="M141.383 310.175C141.383 310.175 155.389 326.961 189.478 338.788C189.478 338.788 189.688 334.313 177.899 323.482C166.111 312.651 139.752 305.036 141.383 310.175Z" fill="#7E9E6E"/>
<path d="M141.383 310.174C141.383 310.174 168.09 314.366 189.478 338.788C189.478 338.788 191.579 341.459 191.84 347.205" stroke="black" stroke-miterlimit="10" stroke-linecap="round"/>
<path d="M160.302 344.54C160.302 344.54 169.618 352.156 189.834 346.06C189.834 346.06 189.573 342.164 182.012 338.552C174.45 334.941 158.947 340.952 160.302 344.54Z" fill="#7E9E6E"/>
<path d="M160.303 344.541C160.303 344.541 175.711 335.46 189.835 346.061C189.835 346.061 191.245 347.333 191.879 352.085" stroke="black" stroke-miterlimit="10" stroke-linecap="round"/>
<path d="M238.288 304.491C238.288 304.491 228.501 330.831 194.411 342.657C194.411 342.657 193.237 327.789 205.025 316.958C216.814 306.128 239.919 299.353 238.288 304.491Z" fill="#7E9E6E"/>
<path d="M238.29 304.49C238.29 304.49 213.415 309.808 194.413 342.656C194.413 342.656 192.232 346.605 191.971 352.351" stroke="black" stroke-miterlimit="10" stroke-linecap="round"/>
<path d="M186.006 308.643C186.006 308.643 183.139 313.305 171.844 311.853C160.549 310.401 148.337 296.975 140.711 299.412C140.711 299.412 159.466 292.689 186.006 308.643Z" fill="#7E9E6E"/>
<path d="M193.873 372.616C191.076 349.232 189.887 321.105 193.161 290.735C193.161 290.735 193.596 282.679 197.945 259.262" stroke="black" stroke-miterlimit="10" stroke-linecap="round"/>
<path d="M143.041 298.806C143.041 298.806 162.005 294.208 186.005 308.643C191.819 312.14 191.555 318.733 191.185 323.871" stroke="black" stroke-miterlimit="10" stroke-linecap="round"/>
<path d="M170.154 362.943L176.73 403.424C176.73 405.905 183.745 407.915 192.398 407.915C201.051 407.915 208.067 405.904 208.067 403.424L214.643 362.943H170.154Z" fill="#0057A1"/>
<path d="M192.398 367.435C204.683 367.435 214.642 365.424 214.642 362.944C214.642 360.464 204.683 358.453 192.398 358.453C180.113 358.453 170.154 360.464 170.154 362.944C170.154 365.424 180.113 367.435 192.398 367.435Z" fill="black"/>
<path d="M216.859 0.713764C233.86 1.17676 247.926 14.7938 248.904 31.7728C249.479 41.7568 245.61 50.8418 239.099 57.2508C238.137 58.1978 237.69 59.5478 237.915 60.8788L240.36 75.3488L225.315 66.5828C224.458 66.0838 223.448 65.8998 222.476 66.0968C218.798 66.8388 214.901 66.9748 210.885 66.3668C196.022 64.1148 184.426 51.8108 183.055 36.8398C181.228 16.8878 197.165 0.176764 216.859 0.713764Z" fill="#D3DDF7"/>
<path d="M215.03 48.4737C214.573 48.4737 214.223 48.3287 213.98 48.0397C213.736 47.7507 213.615 47.3477 213.615 46.8297C213.615 46.3427 213.744 45.9467 214.003 45.6427C214.261 45.3387 214.604 45.1857 215.03 45.1857C215.516 45.1857 215.875 45.3307 216.103 45.6197C216.332 45.9097 216.446 46.3127 216.446 46.8297C216.446 47.2867 216.324 47.6747 216.08 47.9947C215.836 48.3137 215.487 48.4737 215.03 48.4737ZM214.749 37.1017C214.714 36.1587 214.68 35.1917 214.645 34.2017C214.61 33.2127 214.584 32.2227 214.567 31.2327C214.549 30.2437 214.557 29.2307 214.593 28.1957V16.1387H215.739L215.791 28.1957C215.791 29.2307 215.782 30.2437 215.765 31.2327C215.747 32.2227 215.721 33.2127 215.687 34.2017C215.651 35.1917 215.617 36.1587 215.582 37.1017H214.749Z" fill="black"/>
</svg>
