<svg width="50" height="50" viewBox="0 0 50 50" fill="none" xmlns="http://www.w3.org/2000/svg">
<circle cx="25" cy="25" r="25" fill="#FF7900"/>
<g clip-path="url(#clip0_117_45950)">
<path d="M31.5625 29.2187H27.812L27.8125 26.8009C27.8125 26.2951 27.6184 25.8189 27.2664 25.4612C26.9242 25.1125 26.4503 24.9503 25.9708 25.0136C25.487 25.0782 25.0717 25.3609 24.8481 25.7617L22.8854 28.7378C22.7195 29.034 22.4083 29.2187 22.074 29.2187H20.7808C20.6561 29.2187 20.537 29.2679 20.4494 29.3561C20.3617 29.4442 20.312 29.5628 20.312 29.6875L20.3125 39.0625C20.3125 39.3217 20.522 39.5312 20.7812 39.5312H30.3508C31.1369 39.5312 31.8278 39.0475 32.1128 38.2942L33.7872 33.7445C33.8664 33.5312 33.9062 33.3081 33.9062 33.0793V31.562C33.9058 30.2696 32.8544 29.2187 31.5625 29.2187Z" fill="white"/>
<path d="M19.375 39.0625C19.375 39.4187 19.5109 39.7516 19.7359 40H17.2656C16.6188 40 16.0938 39.4797 16.0938 38.8422V29.9078C16.0938 29.2703 16.6188 28.75 17.2656 28.75H19.7359C19.5016 29.0078 19.375 29.3359 19.375 29.6875V39.0625Z" fill="white"/>
<path d="M18.8156 15.7811L17.9639 15.6573C17.6231 15.6076 17.3301 15.3939 17.1787 15.0864L16.7976 14.3148C16.7592 14.2365 16.6481 14.2375 16.6097 14.3148L16.2286 15.0864C16.0776 15.3934 15.7847 15.6067 15.4448 15.6569L14.5917 15.7806C14.549 15.7872 14.5204 15.8111 14.5068 15.8523C14.4937 15.8931 14.5026 15.9292 14.5336 15.9597L15.15 16.5601C15.3961 16.8006 15.5081 17.1456 15.45 17.4836L15.3042 18.3325C15.2967 18.3751 15.3112 18.4094 15.3464 18.4351C15.382 18.4609 15.4186 18.4637 15.4565 18.4436L16.2187 18.0428C16.3701 17.9626 16.537 17.9228 16.7034 17.9228C16.8698 17.9228 17.0367 17.9626 17.1886 18.0428L17.9512 18.4436C17.9882 18.4633 18.0257 18.4605 18.0609 18.4351C18.0961 18.4094 18.1101 18.3751 18.1031 18.3325L17.9568 17.4836C17.8992 17.1437 18.0112 16.7992 18.2573 16.5601L18.8732 15.9597C18.9042 15.9297 18.9136 15.8931 18.9004 15.8523C18.8868 15.8111 18.8582 15.7876 18.8156 15.7811Z" fill="white"/>
<path d="M35.3749 15.7699L34.5283 15.6466C34.1894 15.5979 33.8974 15.3851 33.7464 15.079L33.3677 14.3116C33.3489 14.2746 33.3189 14.2554 33.2777 14.2554C33.236 14.2554 33.2055 14.2746 33.1872 14.3121L32.8085 15.079C32.6575 15.3851 32.3655 15.5974 32.0275 15.6466L31.18 15.7699C31.1393 15.776 31.1116 15.7994 31.0989 15.8383C31.0863 15.8772 31.0947 15.9119 31.1247 15.9415L31.7374 16.5387C31.9816 16.7772 32.0936 17.1204 32.036 17.4569L31.8911 18.3007C31.8841 18.3415 31.8977 18.3747 31.9314 18.3991C31.9657 18.424 32.0013 18.4254 32.0374 18.4071L32.7944 18.0087C33.0972 17.8493 33.4577 17.8493 33.7605 18.0082L34.518 18.4071C34.5555 18.4258 34.5907 18.4235 34.6244 18.3991C34.6582 18.3747 34.6713 18.3419 34.6643 18.3012L34.5194 17.4574C34.4618 17.1204 34.5733 16.7772 34.818 16.5387L35.4307 15.9415C35.4607 15.9119 35.4691 15.8777 35.4564 15.8383C35.4438 15.799 35.4161 15.7755 35.3749 15.7699Z" fill="white"/>
<path d="M27.0524 15.7544L26.1936 15.6297C25.8524 15.5805 25.5585 15.3658 25.4057 15.0569L25.0217 14.2797C24.9969 14.2291 24.9547 14.2188 24.9238 14.2188C24.8933 14.2188 24.8511 14.2291 24.8263 14.2797L24.4424 15.0573C24.2914 15.3658 23.9966 15.58 23.6549 15.6302L22.7957 15.7548C22.7408 15.7633 22.7174 15.7998 22.7075 15.8294C22.6982 15.8589 22.6953 15.9016 22.7357 15.9409L23.3567 16.5466C23.6028 16.7866 23.7158 17.1325 23.6577 17.4723L23.511 18.3278C23.5035 18.3723 23.518 18.408 23.5546 18.4347C23.5799 18.4525 23.6211 18.468 23.6689 18.4431L24.4377 18.0395C24.7405 17.8792 25.1052 17.8783 25.4108 18.0391L26.1791 18.4431C26.2278 18.4684 26.2682 18.453 26.2939 18.4347C26.3305 18.408 26.3446 18.3723 26.3375 18.3278L26.1908 17.4728C26.1327 17.133 26.2452 16.7875 26.4917 16.5466L27.1133 15.9409C27.1536 15.9016 27.1503 15.8584 27.1414 15.8294C27.1311 15.7994 27.1077 15.7628 27.0524 15.7544Z" fill="white"/>
<path d="M37.6562 10H12.3438C11.05 10 10 11.05 10 12.3438V20.3125C10 21.6062 11.05 22.6562 12.3438 22.6562H28.75V26.875C28.75 27.0625 28.8625 27.2359 29.0406 27.3062C29.0969 27.3344 29.1578 27.3438 29.2188 27.3438C29.3406 27.3438 29.4625 27.2969 29.5516 27.2078L34.0984 22.6562H37.6562C38.95 22.6562 40 21.6062 40 20.3125V12.3438C40 11.05 38.95 10 37.6562 10ZM19.5297 16.6328L18.9109 17.2328C18.8875 17.2563 18.8734 17.2891 18.8828 17.3266L19.0281 18.175C19.0938 18.5688 18.9344 18.9578 18.6109 19.1922C18.4281 19.3281 18.2172 19.3938 18.0016 19.3938C17.8328 19.3938 17.6688 19.3563 17.5141 19.2719L16.75 18.8734C16.7219 18.8547 16.6844 18.8547 16.6562 18.8734L15.8922 19.2719C15.5406 19.4594 15.1187 19.4266 14.7953 19.1922C14.4719 18.9578 14.3125 18.5688 14.3781 18.175L14.5281 17.3266C14.5328 17.2891 14.5188 17.2563 14.4953 17.2328L13.8812 16.6328C13.5906 16.3516 13.4922 15.9437 13.6141 15.5641C13.7406 15.1844 14.0594 14.9125 14.4578 14.8516L15.3109 14.7297C15.3438 14.725 15.3719 14.7016 15.3859 14.6734L15.7703 13.9C15.9484 13.5437 16.3047 13.3187 16.7031 13.3187C17.1016 13.3187 17.4625 13.5437 17.6359 13.9L18.0203 14.6734C18.0344 14.7016 18.0672 14.725 18.1 14.7297L18.9484 14.8516C19.3469 14.9125 19.6703 15.1844 19.7922 15.5641C19.9141 15.9437 19.8156 16.3516 19.5297 16.6328ZM27.7656 16.6141L27.1469 17.2188C27.1188 17.2422 27.1094 17.2797 27.1141 17.3125L27.2594 18.1703C27.3297 18.5641 27.1703 18.9578 26.8469 19.1922C26.5187 19.4266 26.0969 19.4594 25.7406 19.2719L24.9766 18.8687C24.9438 18.85 24.9062 18.85 24.8734 18.8687L24.1047 19.2719C23.95 19.3516 23.7859 19.3938 23.6172 19.3938C23.4016 19.3938 23.1859 19.3281 23.0031 19.1922C22.6797 18.9578 22.5203 18.5641 22.5859 18.1703L22.7359 17.3125C22.7406 17.2797 22.7266 17.2422 22.7031 17.2188L22.0797 16.6141C21.7937 16.3328 21.6906 15.9203 21.8172 15.5406C21.9391 15.1562 22.2625 14.8844 22.6609 14.8281L23.5188 14.7016C23.5562 14.6969 23.5844 14.6734 23.6031 14.6453L23.9875 13.8625C24.1609 13.5062 24.5219 13.2812 24.925 13.2812C25.3234 13.2812 25.6844 13.5062 25.8625 13.8625L26.2469 14.6406C26.2609 14.6734 26.2938 14.6969 26.3266 14.7016L27.1891 14.8281C27.5828 14.8844 27.9062 15.1562 28.0328 15.5406C28.1547 15.9203 28.0563 16.3328 27.7656 16.6141ZM36.0859 16.6141L35.4719 17.2094C35.4484 17.2328 35.4391 17.2656 35.4437 17.2984L35.5891 18.1422C35.6547 18.5359 35.4953 18.925 35.1766 19.1594C34.9937 19.2906 34.7781 19.3562 34.5672 19.3562C34.3984 19.3562 34.2344 19.3188 34.0797 19.2344L33.325 18.8359C33.2969 18.8219 33.2594 18.8219 33.2313 18.8406L32.4719 19.2344C32.1203 19.4219 31.7031 19.3891 31.3797 19.1594C31.0562 18.925 30.9016 18.5359 30.9672 18.1422L31.1125 17.2984C31.1172 17.2656 31.1078 17.2328 31.0844 17.2094L30.4703 16.6141C30.1844 16.3328 30.0859 15.925 30.2078 15.55C30.3297 15.1703 30.6531 14.8984 31.0469 14.8422L31.8906 14.7203C31.9234 14.7156 31.9516 14.6922 31.9703 14.6641L32.3453 13.8953C32.5234 13.5391 32.8797 13.3187 33.2781 13.3187C33.6766 13.3187 34.0328 13.5391 34.2062 13.8953L34.5859 14.6641C34.6 14.6922 34.6281 14.7156 34.6656 14.7203L35.5094 14.8422C35.9031 14.8984 36.2266 15.1703 36.3484 15.55C36.4703 15.9297 36.3672 16.3375 36.0859 16.6141Z" fill="white"/>
</g>
<defs>
<clipPath id="clip0_117_45950">
<rect width="30" height="30" fill="white" transform="translate(10 10)"/>
</clipPath>
</defs>
</svg>
