<svg width="60" height="60" viewBox="0 0 60 60" fill="none" xmlns="http://www.w3.org/2000/svg">
<circle cx="30" cy="30" r="30"/>
<g clip-path="url(#clip0_107_3508)">
<path d="M34.5592 31.0629H33.8622L35.9786 33.1975L38.095 31.0629H37.398C37.1261 31.0629 36.9058 30.8425 36.9058 30.5707V27.1927C36.9058 26.9209 37.1261 26.7005 37.398 26.7005C37.6698 26.7005 37.8901 26.9209 37.8901 27.1927V30.0785H39.276C39.4747 30.0785 39.6539 30.1979 39.7303 30.3814C39.8067 30.5648 39.7654 30.7761 39.6255 30.9172L36.3281 34.2432C36.2358 34.3363 36.1099 34.3888 35.9786 34.3888C35.8474 34.3888 35.7216 34.3363 35.6291 34.2432L32.3317 30.9172C32.1919 30.7761 32.1505 30.5648 32.227 30.3814C32.3034 30.198 32.4826 30.0785 32.6813 30.0785H34.067V27.1927C34.067 26.9209 34.2874 26.7005 34.5592 26.7005C34.8311 26.7005 35.0514 26.9209 35.0514 27.1927V30.5707C35.0513 30.8425 34.831 31.0629 34.5592 31.0629ZM45.2393 39.4726L35.7225 43.1399C35.6222 43.1786 35.5196 43.2186 35.415 43.2593C34.227 43.7216 32.8137 44.2716 31.4658 44.2716C31.0743 44.2716 30.6884 44.2252 30.315 44.1168L25.2442 42.6445C24.6246 42.4647 24.0413 42.5142 23.4608 42.7964L21.8718 43.569L22.1483 44.233C22.3065 44.6129 22.3079 45.0299 22.1522 45.4075C21.9964 45.785 21.7013 46.0799 21.3213 46.2378L18.8834 47.2501C18.6919 47.3295 18.4933 47.3671 18.2978 47.3671C17.697 47.3671 17.1255 47.0118 16.8808 46.4238L12.7524 36.511C12.5942 36.1311 12.5929 35.7139 12.7487 35.3363C12.9045 34.9589 13.1996 34.664 13.5796 34.5063L16.0174 33.494C16.7974 33.1703 17.6956 33.5408 18.02 34.3203L18.2646 34.9076C19.4299 34.3568 20.6629 33.77 21.9062 33.162C24.5017 31.8929 26.2667 31.2299 29.5603 33.5378L34.0735 34.7471C34.7549 34.9297 35.3256 35.3687 35.6804 35.9831C35.7109 36.0361 35.7396 36.0898 35.7663 36.1441L42.1189 34.2804C43.5146 33.871 44.6742 33.791 45.5658 34.0423C46.3944 34.2759 46.9876 34.8084 47.2359 35.5416C47.7318 37.0052 46.7802 38.8789 45.2393 39.4726ZM21.2396 44.6115L17.1114 34.6987C17.0238 34.4883 16.8194 34.3612 16.6044 34.3612C16.5345 34.3612 16.4635 34.3746 16.395 34.4031L13.9571 35.4154C13.8201 35.4723 13.7141 35.5776 13.6587 35.7119C13.6033 35.8462 13.6042 35.9956 13.6612 36.1326L17.7894 46.0453C17.9055 46.3242 18.2267 46.4567 18.5059 46.3409L20.9437 45.3286C21.0807 45.2717 21.1867 45.1664 21.2421 45.0321C21.2976 44.8978 21.2967 44.7484 21.2396 44.6115ZM46.3037 35.8574C45.9604 34.8441 44.4995 34.6079 42.3961 35.225L36.0295 37.0928C36.054 37.3916 36.0271 37.6951 35.9475 37.9926C35.7649 38.674 35.3259 39.2447 34.7115 39.5995C34.097 39.9543 33.3832 40.0489 32.7019 39.8665L26.5917 38.2293C26.3292 38.1589 26.1733 37.889 26.2437 37.6265C26.314 37.3638 26.5842 37.2083 26.8464 37.2784L32.9567 38.9156C33.3841 39.0302 33.8324 38.9703 34.2193 38.747C34.6061 38.5237 34.8821 38.1654 34.9966 37.7379C35.1112 37.3104 35.0513 36.8621 34.828 36.4754C34.6047 36.0886 34.2464 35.8125 33.8189 35.698L29.2211 34.4661C29.1646 34.4509 29.1113 34.4259 29.0638 34.3921C26.1655 32.3369 24.7647 32.8601 22.3388 34.0464C21.0754 34.6641 19.8243 35.2594 18.6436 35.8173L21.4927 42.6589L23.0304 41.9112C23.8289 41.523 24.666 41.4517 25.5188 41.6992L30.5896 43.1714C31.9283 43.5603 33.6637 42.8846 35.058 42.3419C35.1636 42.3008 35.2673 42.2605 35.3687 42.2213L44.8855 38.554C45.9263 38.153 46.6288 36.8172 46.3037 35.8574ZM25.3174 24.5206V13.9011C25.3174 13.2017 25.8864 12.6327 26.5857 12.6327H45.3714C46.0707 12.6327 46.6398 13.2017 46.6398 13.9011V24.5206C46.6398 25.22 46.0707 25.789 45.3714 25.789H26.5857C25.8863 25.7889 25.3174 25.22 25.3174 24.5206ZM26.3017 24.5206C26.3017 24.6772 26.4291 24.8046 26.5857 24.8046H45.3714C45.528 24.8046 45.6554 24.6772 45.6554 24.5206V13.9011C45.6554 13.7445 45.528 13.6171 45.3714 13.6171H26.5857C26.4291 13.6171 26.3017 13.7445 26.3017 13.9011V24.5206ZM26.89 21.8853V16.5364C26.89 16.2646 27.1103 16.0443 27.3821 16.0443H27.6484C28.2442 16.0443 28.7288 15.5596 28.7288 14.9638V14.6975C28.7288 14.4257 28.9492 14.2053 29.221 14.2053H42.736C43.0078 14.2053 43.2282 14.4257 43.2282 14.6975V14.9638C43.2282 15.5596 43.7129 16.0443 44.3086 16.0443H44.575C44.8468 16.0443 45.0672 16.2646 45.0672 16.5364V21.8853C45.0672 22.1572 44.8468 22.3775 44.575 22.3775H44.3086C43.7129 22.3775 43.2282 22.8622 43.2282 23.4579V23.7242C43.2282 23.996 43.0078 24.2164 42.736 24.2164H29.221C28.9492 24.2164 28.7288 23.996 28.7288 23.7242V23.4579C28.7288 22.8622 28.2441 22.3775 27.6484 22.3775H27.3821C27.1103 22.3774 26.89 22.1572 26.89 21.8853ZM27.8743 21.4054C28.8329 21.5101 29.5962 22.2735 29.701 23.232H42.2561C42.3608 22.2735 43.1243 21.5101 44.0828 21.4054V17.0163C43.1242 16.9116 42.3608 16.1482 42.2561 15.1897H29.7009C29.5962 16.1482 28.8328 16.9116 27.8743 17.0163L27.8743 21.4054ZM32.2286 19.2108C32.2286 17.1432 33.9108 15.4609 35.9785 15.4609C38.0462 15.4609 39.7283 17.1431 39.7283 19.2108C39.7283 21.2786 38.0462 22.9608 35.9785 22.9608C33.9108 22.9608 32.2286 21.2785 32.2286 19.2108ZM33.213 19.2108C33.213 20.7358 34.4536 21.9764 35.9785 21.9764C37.5034 21.9764 38.7439 20.7358 38.7439 19.2108C38.7439 17.6859 37.5034 16.4453 35.9785 16.4453C34.4536 16.4453 33.213 17.6859 33.213 19.2108ZM35.9785 19.7159C36.1521 19.7159 36.273 19.8267 36.273 19.9262C36.273 20.0257 36.152 20.1365 35.9785 20.1365C35.8628 20.1365 35.8194 20.121 35.6581 19.9688C35.4604 19.7823 35.1489 19.7912 34.9623 19.989C34.7758 20.1867 34.7848 20.4982 34.9824 20.6847C35.12 20.8145 35.2789 20.9494 35.4954 21.0342L35.4957 21.0478C35.5022 21.3156 35.7212 21.5281 35.9876 21.5281C35.9916 21.5281 35.9956 21.5281 35.9996 21.528C36.2711 21.5215 36.4859 21.2963 36.4798 21.025C36.9365 20.8424 37.2573 20.4187 37.2573 19.9262C37.2573 19.2674 36.6836 18.7315 35.9785 18.7315C35.8049 18.7315 35.684 18.6207 35.684 18.5212C35.684 18.4217 35.805 18.3109 35.9785 18.3109C36.0662 18.3109 36.1496 18.3403 36.2069 18.3916C36.4097 18.5728 36.7208 18.555 36.9019 18.3523C37.083 18.1496 37.0654 17.8384 36.8627 17.6574C36.7451 17.5524 36.6093 17.4709 36.4622 17.4149L36.4613 17.3738C36.4548 17.102 36.2283 16.8875 35.9575 16.8935C35.6857 16.9 35.4706 17.1255 35.4772 17.3973L35.4777 17.4221C35.0208 17.6045 34.6996 18.0284 34.6996 18.5212C34.6996 19.18 35.2733 19.7159 35.9785 19.7159Z" fill="white"/>
</g>
<defs>
<clipPath id="clip0_107_3508">
<rect width="36" height="36" fill="white" transform="translate(12 12)"/>
</clipPath>
</defs>
</svg>
