<svg width="50" height="50" viewBox="0 0 50 50" fill="none" xmlns="http://www.w3.org/2000/svg">
<circle cx="25" cy="25" r="25" fill="#FF7900"/>
<path d="M25.2921 27.4424C25.2921 27.71 25.5088 27.9268 25.7764 27.9268H29.5911C28.4651 28.8142 27.0439 29.3437 25.499 29.3437C21.8445 29.3437 18.882 26.3812 18.882 22.7268C18.882 19.0724 21.8445 16.1099 25.499 16.1099C29.1534 16.1099 32.1159 19.0724 32.1159 22.7268C32.1159 24.3361 31.5412 25.8111 30.586 26.9581H25.7764C25.5089 26.9581 25.2921 27.1748 25.2921 27.4424ZM15.5481 26.2762H16.5963C16.8639 26.2762 17.0807 26.0589 17.0807 25.7919V19.8916C17.0807 19.624 16.8639 19.4072 16.5963 19.4072H16.5708C17.8255 15.6055 21.4098 13.0013 25.499 13.0013C29.5883 13.0013 33.1727 15.6055 34.4274 19.4072H34.4018C34.1343 19.4072 33.9174 19.624 33.9174 19.8916V25.7919C33.9174 26.0589 34.1342 26.2762 34.4018 26.2762H34.8867C34.8717 26.6548 34.5599 26.9581 34.1779 26.9581H30.7361C30.4496 27.3123 30.1281 27.6372 29.7764 27.9268H34.1779C35.1035 27.9268 35.8569 27.1737 35.8569 26.2479V26.2346C36.4471 26.1134 36.9527 25.7261 37.3069 25.112C37.6582 24.5048 37.8514 23.6981 37.8514 22.8415C37.8514 21.9854 37.6582 21.179 37.3069 20.5709C36.8733 19.8207 36.2142 19.4073 35.45 19.4073H35.4421C34.1518 15.046 30.1169 12.0326 25.499 12.0326C20.8812 12.0326 16.8463 15.046 15.5561 19.4073H15.5481C14.784 19.4073 14.1249 19.8207 13.6913 20.5709C13.34 21.179 13.147 21.9854 13.147 22.8415C13.147 23.6981 13.34 24.5048 13.6913 25.112C14.1249 25.8628 14.784 26.2762 15.5481 26.2762ZM38.4223 38.5611C36.1986 33.4314 31.1078 30.0799 25.4989 30.0799C19.8901 30.0799 14.7995 33.4314 12.5758 38.5611C12.5356 38.6537 12.5441 38.7519 12.5994 38.8362C12.6548 38.9205 12.7415 38.9674 12.8424 38.9674H38.1557C38.2565 38.9674 38.3432 38.9205 38.3986 38.8362C38.454 38.7519 38.4625 38.6537 38.4223 38.5611Z" fill="white"/>
</svg>
