<svg width="36" height="36" viewBox="0 0 36 36" fill="none" xmlns="http://www.w3.org/2000/svg">
<path d="M14.2683 17.5913H12.41C12.1453 17.5913 11.9336 17.803 11.9336 18.0732V22.552C11.9336 22.8115 12.1453 23.0284 12.41 23.0284H14.2683C14.5383 23.0284 14.75 22.8115 14.75 22.552V18.0732C14.75 17.803 14.5383 17.5913 14.2683 17.5913Z" fill="currentColor"/>
<path d="M18.5978 19.0366H16.7396C16.4696 19.0366 16.2578 19.2538 16.2578 19.5185V22.552C16.2578 22.8115 16.4696 23.0284 16.7396 23.0284H18.5978C18.8625 23.0284 19.0743 22.8115 19.0743 22.552V19.5185C19.0743 19.2538 18.8625 19.0366 18.5978 19.0366Z" fill="currentColor"/>
<path d="M22.9246 16.2045H21.0663C20.8016 16.2045 20.5898 16.4214 20.5898 16.6809V22.552C20.5898 22.8115 20.8016 23.0284 21.0663 23.0284H22.9246C23.1893 23.0284 23.4063 22.8115 23.4063 22.552V16.6809C23.4063 16.4214 23.1893 16.2045 22.9246 16.2045Z" fill="currentColor"/>
<path d="M9.94354 19.6932H8.08C7.82059 19.6932 7.60352 19.905 7.60352 20.1697V22.552C7.60352 22.8115 7.82059 23.0284 8.08 23.0284H9.94354C10.2082 23.0284 10.42 22.8115 10.42 22.552V20.1697C10.42 19.905 10.2082 19.6932 9.94354 19.6932Z" fill="currentColor"/>
<path d="M8.34972 9.89916H13.7127C14.0038 9.89916 14.2421 9.66082 14.2421 9.36974C14.2421 9.07867 14.0038 8.84033 13.7127 8.84033H8.34972C8.05852 8.84033 7.82031 9.07867 7.82031 9.36974C7.82031 9.66082 8.05852 9.89916 8.34972 9.89916Z" fill="currentColor"/>
<path d="M11.198 13.1655H8.34972C8.05852 13.1655 7.82031 13.4039 7.82031 13.6949C7.82031 13.986 8.05852 14.2244 8.34972 14.2244H11.198C11.4891 14.2244 11.7274 13.986 11.7274 13.6949C11.7274 13.4039 11.4891 13.1655 11.198 13.1655Z" fill="currentColor"/>
<path d="M8.34972 12.0592H13.7127C14.0038 12.0592 14.2421 11.8263 14.2421 11.5298C14.2421 11.2384 14.0038 11.0004 13.7127 11.0004H8.34972C8.05852 11.0004 7.82031 11.2384 7.82031 11.5298C7.82031 11.8263 8.05852 12.0592 8.34972 12.0592Z" fill="currentColor"/>
<path d="M19.9322 8.00891C17.9892 8.00891 16.4062 9.58681 16.4062 11.5297C16.4062 13.5907 18.1027 15.0027 19.9322 15.0027C21.8302 15.0027 23.4051 13.4768 23.4051 11.5297C23.4051 9.50648 21.6713 8.00891 19.9322 8.00891ZM19.4027 11.3126L17.8515 12.8584C17.6027 12.4668 17.4651 12.0116 17.4651 11.5297C17.4651 10.3543 18.2963 9.36449 19.4027 9.12616V11.3126Z" fill="currentColor"/>
<path d="M24.9988 1.0387H6.40564C5.19023 1.0387 4.20307 2.02591 4.20307 3.24139C4.20202 3.29574 4.1362 6.69948 4.14026 6.48972C2.57316 6.81259 1.39258 8.20488 1.39258 9.86188V26.1625C1.39258 28.0684 2.93848 29.6145 4.84435 29.6145H11.1775V31.5629H10.255C9.4124 31.5629 8.72595 32.243 8.72595 33.0857V34.234C8.72595 34.5772 9.00681 34.858 9.35011 34.858H22.0567C22.4 34.858 22.6808 34.5772 22.6808 34.234V33.0857C22.6808 32.243 21.9943 31.5629 21.1517 31.5629H20.227V29.6145H22.2143C22.6432 32.632 25.2478 34.9614 28.382 34.9614C31.8179 34.9614 34.6079 32.1662 34.6079 28.7302C34.6079 25.8608 32.6596 23.4361 30.0125 22.7161V9.86188C30.0125 8.20488 28.832 6.81259 27.2649 6.48972C27.2491 5.67764 27.2026 3.29559 27.2014 3.24139C27.2014 2.02591 26.2141 1.0387 24.9988 1.0387ZM4.14026 24.5215H2.4514V9.86188C2.4514 8.78729 3.1608 7.88202 4.14026 7.58034V24.5215ZM15.7025 27.9309C15.2155 27.9309 14.8238 27.539 14.8238 27.052C14.8238 26.565 15.2155 26.1679 15.7025 26.1679C16.1897 26.1679 16.5814 26.565 16.5814 27.052C16.5814 27.539 16.1897 27.9309 15.7025 27.9309ZM5.19908 24.3837C5.19908 18.1089 5.19908 12.453 5.19908 6.70144H26.2061V22.8961C25.3379 23.2192 24.5596 23.7326 23.9243 24.3837H5.19908ZM27.2649 7.58034C28.2443 7.88202 28.9537 8.78729 28.9537 9.86188V22.5256C28.3924 22.4771 27.8692 22.4912 27.2649 22.605V7.58034ZM28.382 23.5578C31.2528 23.5578 33.549 25.8954 33.549 28.7302C33.549 31.5786 31.2302 33.9026 28.382 33.9026C25.5809 33.9026 23.3826 31.6795 23.2202 29.0851C23.072 25.8247 25.586 23.5578 28.382 23.5578Z" fill="currentColor"/>
<path d="M26.9259 28.3756C26.0244 28.7679 25.2475 29.6243 24.9723 30.7104C24.8771 31.0968 25.1895 31.4621 25.5865 31.4621H31.1771C31.5741 31.4621 31.8865 31.0968 31.7912 30.7104C31.5212 29.6673 30.7959 28.8096 29.8377 28.3756C30.0971 28.0527 30.2506 27.6396 30.2506 27.195C30.2506 26.122 29.3759 25.3263 28.3818 25.3263C27.3441 25.3263 26.5077 26.1625 26.5077 27.195C26.5077 27.6396 26.6665 28.0527 26.9259 28.3756Z" fill="currentColor"/>
</svg>