<svg width="60" height="60" viewBox="0 0 60 60" fill="none" xmlns="http://www.w3.org/2000/svg">
<circle cx="30" cy="30" r="30" />
<g clip-path="url(#clip0_107_3517)">
<path fill-rule="evenodd" clip-rule="evenodd" d="M17.702 18.4667C17.4571 19.312 16.6768 19.9306 15.7532 19.9306C14.6336 19.9306 13.7246 19.0216 13.7246 17.902C13.7246 16.7824 14.6336 15.8735 15.7532 15.8735C16.6768 15.8735 17.4571 16.4921 17.702 17.3373H25.4924V17.3399C25.5102 17.3382 25.5282 17.3373 25.5464 17.3373C25.8582 17.3373 26.1112 17.5904 26.1112 17.902V20.6233H28.5761V15.0839H21.2963C21.0515 15.9291 20.2711 16.5477 19.3475 16.5477C18.2279 16.5477 17.3189 15.6388 17.3189 14.5192C17.3189 13.3996 18.2279 12.4906 19.3475 12.4906C20.2711 12.4906 21.0515 13.1092 21.2963 13.9545H29.0868V13.957C29.1045 13.9553 29.1226 13.9545 29.1408 13.9545C29.4524 13.9545 29.7055 14.2075 29.7055 14.5192V20.6233H32.2945V14.5192C32.2945 14.2075 32.5476 13.9545 32.8592 13.9545C32.8775 13.9545 32.8955 13.9553 32.9132 13.957V13.9545H40.7038C40.9486 13.1092 41.7289 12.4906 42.6526 12.4906C43.7722 12.4906 44.6812 13.3996 44.6812 14.5192C44.6812 15.6388 43.7722 16.5477 42.6526 16.5477C41.7289 16.5477 40.9486 15.9291 40.7038 15.0839H33.424V20.6233H35.8889V17.902C35.8889 17.5904 36.1419 17.3373 36.4536 17.3373C36.4718 17.3373 36.4898 17.3382 36.5076 17.3399V17.3373H44.2981C44.5429 16.4921 45.3232 15.8735 46.2469 15.8735C47.3665 15.8735 48.2754 16.7824 48.2754 17.902C48.2754 19.0216 47.3665 19.9306 46.2469 19.9306C45.3232 19.9306 44.5429 19.312 44.2981 18.4667H37.0183V20.6233H37.5491C38.4383 20.6233 39.1615 21.3465 39.1615 22.2357V23.5761H43.5559C43.869 23.5761 44.1229 23.8298 44.1229 24.143V27.9258C44.1229 28.0851 44.1187 28.2418 44.1105 28.3959H45.9106C46.2222 28.3959 46.4753 28.649 46.4753 28.9606V39.0142C47.3205 39.259 47.9392 40.0394 47.9392 40.963C47.9392 42.0826 47.0302 42.9916 45.9106 42.9916C44.791 42.9916 43.882 42.0826 43.882 40.963C43.882 40.0394 44.5007 39.259 45.3459 39.0142V29.5253H43.9703C43.3565 32.5885 40.9489 34.4151 37.7941 35.0421C37.256 36.0607 36.5778 37.0059 35.7942 37.7951C34.9118 38.6837 33.8974 39.374 32.8021 39.7641C32.8802 42.2498 34.9225 44.2548 37.421 44.277C37.7322 44.2797 37.9829 44.5327 37.9829 44.8439V46.9412C37.9829 47.2543 37.7291 47.5081 37.416 47.5081H24.1603C23.8472 47.5081 23.5934 47.2543 23.5934 46.9412V44.8439C23.5934 44.5327 23.8441 44.2797 24.1553 44.277C26.6538 44.2548 28.6961 42.2498 28.7742 39.7641C27.6789 39.374 26.6645 38.6837 25.7821 37.7951C24.9985 37.0059 24.3204 36.0607 23.7822 35.0421C20.6275 34.4151 18.2198 32.5885 17.606 29.5253H16.3737V39.0313C17.1901 39.2937 17.7817 40.0598 17.7817 40.963C17.7817 42.0826 16.8728 42.9916 15.7532 42.9916C14.6336 42.9916 13.7246 42.0826 13.7246 40.963C13.7246 40.0191 14.3706 39.2249 15.2443 38.9989V28.9606C15.2443 28.649 15.4974 28.3959 15.809 28.3959H17.4658C17.4576 28.2418 17.4534 28.0851 17.4534 27.9258V24.143C17.4534 23.8298 17.7073 23.5761 18.0204 23.5761H22.4148V22.2357C22.4148 21.3474 23.1355 20.6233 24.0336 20.6233H24.9817V18.4667H17.702ZM39.1615 24.7099V29.909C39.1615 31.1452 38.8866 32.4647 38.3943 33.7293C41.0846 32.9438 42.989 31.0427 42.989 27.9258V24.7099H39.1615ZM31.682 40.0502C31.388 40.0961 31.0897 40.1199 30.7882 40.1199C30.4866 40.1199 30.1883 40.0961 29.8943 40.0502C29.6862 42.8372 27.4902 45.0854 24.7273 45.3786V46.3743H30.7882L36.849 46.3742V45.3786C34.0861 45.0854 31.8901 42.8372 31.682 40.0502ZM23.1821 33.7293C22.6897 32.4647 22.4148 31.1452 22.4148 29.909V24.7099H18.5873V27.9258C18.5873 31.0427 20.4917 32.9438 23.1821 33.7293ZM15.7532 40.0709C15.2608 40.0709 14.8611 40.4706 14.8611 40.963C14.8611 41.4554 15.2608 41.8551 15.7532 41.8551C16.2455 41.8551 16.6453 41.4554 16.6453 40.963C16.6453 40.4706 16.2455 40.0709 15.7532 40.0709ZM19.3475 13.6271C18.8551 13.6271 18.4554 14.0268 18.4554 14.5192C18.4554 15.0115 18.8551 15.4113 19.3475 15.4113C19.8398 15.4113 20.2396 15.0115 20.2396 14.5192C20.2396 14.0268 19.8398 13.6271 19.3475 13.6271ZM24.0336 21.7571C23.7658 21.7571 23.5487 21.9708 23.5487 22.2357V29.909C23.5487 32.3499 24.7506 35.1471 26.5867 36.9962C27.7686 38.1864 29.2169 38.986 30.7882 38.986C32.3595 38.986 33.8077 38.1864 34.9896 36.9962C36.8257 35.1471 38.0276 32.3499 38.0276 29.909V22.2357C38.0276 21.9718 37.813 21.7571 37.5491 21.7571H24.0336ZM26.6804 31.6535C26.63 31.6325 26.576 31.6098 26.5184 31.5851C25.8285 31.2916 25.4312 30.6039 25.5205 29.8595C25.5858 29.3106 25.6444 29.0903 25.6079 28.8825C25.5714 28.6749 25.4411 28.488 25.192 27.9952L25.1915 27.9944C24.854 27.3243 24.9913 26.5429 25.5392 26.0313C25.9412 25.6531 26.1274 25.5218 26.2327 25.3391C26.3381 25.1562 26.3584 24.9292 26.4841 24.3912L26.4842 24.3906C26.6555 23.6611 27.2629 23.1519 28.0124 23.1098L28.0125 23.1097C28.5639 23.0788 28.7909 23.098 28.9892 23.0258C29.1875 22.9537 29.3492 22.793 29.7918 22.462C30.3925 22.0128 31.1843 22.0128 31.785 22.462C32.2276 22.793 32.3893 22.9537 32.5875 23.0258C32.7858 23.098 33.0128 23.0788 33.5642 23.1097L33.5644 23.1098C34.3141 23.1519 34.9216 23.6615 35.091 24.3911C35.2173 24.9289 35.2381 25.1559 35.3436 25.3387C35.4492 25.5216 35.6355 25.6531 36.0373 26.031C36.5833 26.5423 36.7228 27.3242 36.3852 27.9944L36.3848 27.9952C36.1355 28.4882 36.0049 28.6752 35.9682 28.883C35.9315 29.0905 35.9902 29.3106 36.0562 29.8588C36.0563 29.8594 36.0563 29.8601 36.0564 29.8608C36.1391 30.5694 35.7847 31.2256 35.1558 31.5401L36.218 34.0199C36.3007 34.2131 36.2693 34.4362 36.1365 34.599C36.0037 34.762 35.7916 34.8376 35.5856 34.7955L34.1836 34.5087L33.4285 35.7242C33.3172 35.9034 33.1152 36.0057 32.9048 35.9892C32.6945 35.9728 32.5108 35.8404 32.4287 35.6461L31.4818 33.4055C31.1322 33.2938 30.9613 33.2291 30.7878 33.2291C30.6959 33.2291 30.605 33.2471 30.488 33.2807L29.1029 36.2273C29.0135 36.4173 28.8261 36.5421 28.6163 36.5512C28.4065 36.5603 28.209 36.4523 28.1036 36.2708L27.3847 35.0337L25.9753 35.2806C25.7682 35.3169 25.5581 35.2351 25.43 35.0683C25.3019 34.9015 25.2772 34.6774 25.3657 34.4867L26.6804 31.6535ZM34.1359 32.0275C33.9928 32.1638 33.8895 32.3725 33.6088 32.8028L33.6083 32.8036C33.3934 33.1317 33.0857 33.3628 32.7381 33.4769L33.0445 34.202L33.4317 33.5786C33.5564 33.3778 33.7931 33.2759 34.0246 33.3233L34.7549 33.4727L34.1359 32.0275ZM29.1172 33.5421C28.6571 33.477 28.2395 33.2174 27.9685 32.8036L27.9683 32.8033C27.8173 32.5724 27.7175 32.4052 27.6354 32.2788L26.8451 33.9816L27.5777 33.8533C27.8108 33.8125 28.0446 33.9213 28.1634 34.1258L28.539 34.7721L29.1172 33.5421ZM31.1085 23.3665C30.9155 23.2222 30.6612 23.2222 30.4682 23.3665L30.4681 23.3666C29.8775 23.8081 29.6401 23.9908 29.3755 24.0871C29.1109 24.1835 28.8117 24.1961 28.0758 24.2373C27.8348 24.251 27.6389 24.414 27.5838 24.6486C27.416 25.3665 27.3519 25.659 27.2113 25.9031C27.0706 26.147 26.8496 26.3492 26.3123 26.8545C26.3118 26.8551 26.3111 26.8557 26.3105 26.8563C26.1346 27.0203 26.092 27.2712 26.2001 27.4861C26.5328 28.1441 26.6715 28.4096 26.7202 28.6869C26.769 28.9641 26.7292 29.261 26.642 29.993L26.6419 29.9935C26.6133 30.232 26.7401 30.4523 26.9611 30.5461C26.9617 30.5464 26.9624 30.5466 26.9629 30.5469C27.641 30.8376 27.9179 30.9519 28.1335 31.1331C28.3491 31.3142 28.5095 31.5674 28.9134 32.1849C29.0449 32.3857 29.284 32.4733 29.5151 32.4031L29.5158 32.4029C30.221 32.19 30.5062 32.0997 30.7878 32.0997C31.0692 32.0997 31.3548 32.19 32.0607 32.4028C32.0612 32.403 32.0617 32.4031 32.0622 32.4033C32.2923 32.4734 32.5318 32.3856 32.6632 32.185C33.0663 31.5673 33.2269 31.3141 33.4428 31.1329C33.6587 30.9517 33.9359 30.8375 34.6138 30.5469C34.6144 30.5466 34.6151 30.5464 34.6156 30.5461C34.8369 30.4522 34.9623 30.231 34.9347 29.9923C34.8466 29.2606 34.807 28.9637 34.856 28.6864C34.905 28.4092 35.044 28.1438 35.3766 27.4861C35.485 27.2709 35.4407 27.0196 35.2653 26.8554L35.2644 26.8545C34.7274 26.3494 34.5063 26.1473 34.3655 25.9034C34.2246 25.6595 34.1601 25.3669 33.9914 24.6489C33.9913 24.6482 33.9911 24.6476 33.9909 24.647C33.9368 24.413 33.7412 24.2509 33.5009 24.2373C32.765 24.1961 32.4659 24.1835 32.2012 24.0871C31.9366 23.9908 31.6992 23.8081 31.1087 23.3666L31.1085 23.3665ZM30.7876 31.483C28.7826 31.483 27.1465 29.8469 27.1465 27.842C27.1465 25.8371 28.7826 24.201 30.7876 24.201C32.7944 24.201 34.4286 25.8371 34.4286 27.842C34.4286 29.8469 32.7944 31.483 30.7876 31.483ZM30.7876 30.3536C32.1719 30.3536 33.2992 29.225 33.2992 27.842C33.2992 26.459 32.1719 25.3304 30.7876 25.3304C29.4045 25.3304 28.276 26.459 28.276 27.842C28.276 29.225 29.4045 30.3536 30.7876 30.3536ZM29.0593 28.3216C28.8388 28.1015 28.8385 27.7436 29.0586 27.523C29.2789 27.3025 29.6367 27.3021 29.8573 27.5224L30.2521 27.9165L31.7375 26.5698C31.9684 26.3605 32.3258 26.378 32.5351 26.6089C32.7445 26.8398 32.727 27.1972 32.4961 27.4065L30.6127 29.1141C30.3898 29.3163 30.0474 29.3081 29.8345 29.0954L29.0593 28.3216ZM46.2469 17.0099C45.7545 17.0099 45.3548 17.4097 45.3548 17.902C45.3548 18.3944 45.7545 18.7941 46.2469 18.7941C46.7393 18.7941 47.139 18.3944 47.139 17.902C47.139 17.4097 46.7393 17.0099 46.2469 17.0099ZM45.9106 40.0709C45.4182 40.0709 45.0185 40.4706 45.0185 40.963C45.0185 41.4554 45.4182 41.8551 45.9106 41.8551C46.4029 41.8551 46.8027 41.4554 46.8027 40.963C46.8027 40.4706 46.4029 40.0709 45.9106 40.0709ZM15.7532 17.0099C15.2608 17.0099 14.8611 17.4097 14.8611 17.902C14.8611 18.3944 15.2608 18.7941 15.7532 18.7941C16.2455 18.7941 16.6453 18.3944 16.6453 17.902C16.6453 17.4097 16.2455 17.0099 15.7532 17.0099ZM42.6526 13.6271C42.1602 13.6271 41.7605 14.0268 41.7605 14.5192C41.7605 15.0115 42.1602 15.4113 42.6526 15.4113C43.1449 15.4113 43.5447 15.0115 43.5447 14.5192C43.5447 14.0268 43.1449 13.6271 42.6526 13.6271Z" fill="white"/>
</g>
<defs>
<clipPath id="clip0_107_3517">
<rect width="36" height="36" fill="currentColor" transform="translate(13 12)"/>
</clipPath>
</defs>
</svg>
