<svg width="36" height="36" viewBox="0 0 36 36" fill="none" xmlns="http://www.w3.org/2000/svg">
<path fill-rule="evenodd" clip-rule="evenodd" d="M29.8145 18.1834H6.18497L14.129 26.9017C14.1968 26.9677 14.2388 27.0604 14.2388 27.1624V34.2622C14.2388 34.3564 14.258 34.4407 14.2943 34.512C14.3315 34.5847 14.3881 34.6492 14.4631 34.7032C14.5366 34.7561 14.6161 34.7891 14.6982 34.8015C14.7811 34.8142 14.867 34.8064 14.9528 34.7775L21.3908 32.6269C21.5052 32.5886 21.5986 32.5196 21.6623 32.4311C21.7253 32.3434 21.761 32.2331 21.761 32.1116V27.1624H21.7617C21.7617 27.075 21.7928 26.9872 21.8566 26.9175L29.8145 18.1834ZM12.2266 6.24937C12.2266 6.04012 12.3961 5.871 12.6053 5.871C12.8146 5.871 12.9841 6.0405 12.9841 6.24937V6.53025C13.1641 6.582 13.3265 6.66975 13.4603 6.78412C13.697 6.98587 13.8447 7.27012 13.8522 7.58887C13.8571 7.797 13.6921 7.96987 13.484 7.97475C13.2758 7.97962 13.103 7.81462 13.0981 7.6065C13.0958 7.51237 13.0471 7.42462 12.9691 7.35787C12.8798 7.28175 12.752 7.23487 12.6053 7.23487C12.4568 7.23487 12.3267 7.28287 12.2356 7.36012C12.1606 7.42425 12.1141 7.50825 12.1141 7.5975C12.1141 7.68862 12.1587 7.77337 12.233 7.83675C12.323 7.91362 12.4535 7.96125 12.6068 7.962C12.9466 7.96387 13.2485 8.07975 13.4686 8.26762C13.709 8.47237 13.8537 8.75962 13.8537 9.08062C13.8537 9.40125 13.7056 9.68775 13.466 9.89175C13.331 10.0069 13.1663 10.0954 12.9841 10.1479V10.4287C12.9841 10.638 12.8146 10.8075 12.6053 10.8075C12.3961 10.8075 12.2266 10.638 12.2266 10.4287V10.1475C12.0466 10.0957 11.8842 10.008 11.7503 9.894C11.5137 9.69225 11.366 9.408 11.3581 9.08925C11.3532 8.88112 11.5182 8.70825 11.7263 8.70337C11.9345 8.6985 12.1073 8.8635 12.1122 9.07162C12.1145 9.16575 12.1628 9.2535 12.2412 9.32025C12.3305 9.39637 12.4583 9.44325 12.605 9.44325C12.7531 9.44325 12.8836 9.39525 12.9743 9.318C13.0493 9.25387 13.0962 9.16987 13.0962 9.08062C13.0962 8.9895 13.0516 8.90475 12.9773 8.84137C12.8873 8.7645 12.7565 8.71687 12.6035 8.71612C12.2637 8.71425 11.9618 8.59837 11.7413 8.4105C11.501 8.20575 11.3562 7.9185 11.3562 7.5975C11.3562 7.27725 11.5043 6.99037 11.744 6.78637C11.879 6.67125 12.0436 6.58275 12.2258 6.53025V6.24937H12.2266ZM15.0923 10.8259C15.7287 10.1895 16.1225 9.31012 16.1225 8.33887C16.1225 7.36762 15.7287 6.48862 15.0923 5.85187C14.456 5.2155 13.5766 4.82175 12.6053 4.82175C11.6341 4.82175 10.7547 5.2155 10.1183 5.85187C9.48197 6.48825 9.08822 7.36762 9.08822 8.33887C9.08822 9.31012 9.48197 10.1895 10.1183 10.8259C10.7547 11.4622 11.6341 11.856 12.6053 11.856C13.5766 11.8564 14.456 11.4626 15.0923 10.8259ZM12.6053 11.0989C13.3673 11.0989 14.0573 10.7899 14.5568 10.2907C15.0563 9.79125 15.3653 9.10125 15.3653 8.33887C15.3653 7.57687 15.0563 6.8865 14.5572 6.38737C14.0577 5.88787 13.3677 5.57925 12.6057 5.57925C11.8433 5.57925 11.1533 5.88825 10.6542 6.38737C10.1547 6.88687 9.84572 7.57687 9.84572 8.33887C9.84572 9.10087 10.1547 9.79125 10.6542 10.2907C11.153 10.7899 11.8433 11.0989 12.6053 11.0989ZM12.6053 12.669C13.8008 12.669 14.8835 12.1845 15.6672 11.4007C16.4506 10.6174 16.9355 9.53475 16.9355 8.33887C16.9355 7.14337 16.451 6.06075 15.6672 5.277C14.8838 4.49362 13.8012 4.00875 12.6053 4.00875C11.4095 4.00875 10.3272 4.49325 9.54347 5.277C8.76009 6.06037 8.27522 7.143 8.27522 8.33887C8.27522 9.53437 8.75972 10.617 9.54347 11.4007C10.3272 12.1841 11.4098 12.669 12.6053 12.669ZM25.8773 3.207C25.8773 3.00037 26.045 2.83275 26.2516 2.83275C26.4582 2.83275 26.6258 3.00037 26.6258 3.207V3.429C26.7803 3.47737 26.9198 3.555 27.0361 3.654C27.2543 3.84 27.3908 4.1025 27.398 4.39725C27.4028 4.60312 27.2397 4.77412 27.0338 4.779C26.828 4.78387 26.657 4.62075 26.6521 4.41487C26.6502 4.3425 26.612 4.27387 26.5505 4.22137C26.4777 4.15912 26.3727 4.12087 26.2512 4.12087C26.1286 4.12087 26.0213 4.15987 25.9467 4.22325C25.8878 4.27312 25.8515 4.338 25.8515 4.40587C25.8515 4.47562 25.8863 4.54087 25.9441 4.59C26.0176 4.653 26.1256 4.69162 26.2523 4.69237C26.5636 4.69387 26.8411 4.80075 27.0432 4.97325C27.2652 5.16262 27.3987 5.42812 27.3987 5.72512C27.3987 6.02175 27.2618 6.2865 27.0406 6.47512C26.9232 6.57525 26.7815 6.65362 26.6251 6.70237V6.92437C26.6251 7.131 26.4575 7.29862 26.2508 7.29862C26.0442 7.29862 25.8766 7.131 25.8766 6.92437V6.702C25.7221 6.65362 25.5826 6.576 25.466 6.477C25.2477 6.291 25.1112 6.0285 25.1041 5.73375C25.0992 5.52787 25.2623 5.35687 25.4682 5.352C25.6741 5.34712 25.8451 5.51025 25.85 5.71612C25.8518 5.7885 25.8901 5.85712 25.9516 5.90962C26.0243 5.97187 26.1293 6.01012 26.2508 6.01012C26.3735 6.01012 26.4807 5.97112 26.5553 5.90775C26.6142 5.85787 26.6502 5.793 26.6502 5.72512C26.6502 5.65537 26.6153 5.59012 26.5576 5.541C26.4837 5.478 26.3761 5.43937 26.2493 5.43862C25.9377 5.43712 25.6606 5.33025 25.4585 5.15775C25.2365 4.96837 25.1026 4.70287 25.1026 4.40625C25.1026 4.10962 25.2395 3.84487 25.4607 3.65625C25.5781 3.55612 25.7195 3.47775 25.8762 3.429V3.207H25.8773ZM28.4903 7.30462C29.0633 6.73162 29.4177 5.94 29.4177 5.06587C29.4177 4.19137 29.0633 3.39975 28.4903 2.82712C27.9173 2.25412 27.1257 1.89975 26.2516 1.89975C25.3775 1.89975 24.5858 2.25412 24.0128 2.82712C23.4398 3.40012 23.0855 4.19175 23.0855 5.06587C23.0855 5.94 23.4398 6.73162 24.0128 7.30462C24.5858 7.87762 25.3775 8.232 26.2516 8.232C27.1257 8.232 27.9177 7.87762 28.4903 7.30462ZM26.2516 7.48312C26.9191 7.48312 27.5236 7.21275 27.9608 6.77512C28.3981 6.3375 28.6688 5.73337 28.6688 5.06587C28.6688 4.39837 28.3981 3.79387 27.9608 3.35625C27.5236 2.919 26.9191 2.64825 26.2516 2.64825C25.5841 2.64825 24.9796 2.919 24.5423 3.35625C24.1051 3.79387 23.8343 4.398 23.8343 5.06587C23.8343 5.73337 24.1051 6.33787 24.5423 6.77512C24.9796 7.21275 25.5841 7.48312 26.2516 7.48312ZM26.2516 8.93887C27.3211 8.93887 28.2893 8.50537 28.9902 7.8045C29.6911 7.10362 30.1246 6.13537 30.1246 5.06587C30.1246 3.99637 29.6911 3.02775 28.9902 2.32725C28.2893 1.62637 27.3211 1.19287 26.2516 1.19287C25.1821 1.19287 24.2138 1.62637 23.513 2.32725C22.8121 3.02812 22.3786 3.99637 22.3786 5.06587C22.3786 6.13537 22.8121 7.10362 23.513 7.8045C24.2138 8.50537 25.1821 8.93887 26.2516 8.93887ZM21.2168 10.7179C21.2168 10.5169 21.38 10.3537 21.581 10.3537C21.782 10.3537 21.9451 10.5169 21.9451 10.7179V10.8806C22.0726 10.9245 22.1881 10.9905 22.2856 11.0737C22.4828 11.2417 22.6062 11.4791 22.6126 11.7461C22.6175 11.9464 22.4585 12.1129 22.2582 12.1174C22.058 12.1222 21.8915 11.9636 21.887 11.763C21.8858 11.7124 21.8581 11.6636 21.8135 11.6257C21.7576 11.5781 21.6762 11.5489 21.581 11.5489C21.4846 11.5489 21.4013 11.5789 21.344 11.6276C21.302 11.6632 21.2761 11.7086 21.2761 11.7547C21.2761 11.8027 21.3008 11.8485 21.3417 11.8834C21.3983 11.9317 21.4823 11.9617 21.5821 11.9621C21.8615 11.9632 22.1101 12.0592 22.292 12.2145C22.493 12.3859 22.6137 12.6262 22.6137 12.8951C22.6137 13.1636 22.49 13.4036 22.2897 13.5742C22.1915 13.6582 22.0741 13.725 21.9447 13.7692V13.9316C21.9447 14.133 21.7816 14.2957 21.5806 14.2957C21.3796 14.2957 21.2165 14.1326 21.2165 13.9316V13.7692C21.089 13.7254 20.9735 13.659 20.876 13.5761C20.6787 13.4081 20.5553 13.1704 20.549 12.9037C20.5445 12.7035 20.7027 12.537 20.9033 12.5325C21.1036 12.5276 21.2701 12.6862 21.2746 12.8869C21.2757 12.9375 21.3035 12.9862 21.3485 13.0241C21.4043 13.0717 21.4857 13.1014 21.581 13.1014C21.6773 13.1014 21.7606 13.0714 21.8176 13.0226C21.8596 12.987 21.8855 12.9416 21.8855 12.8955C21.8855 12.8475 21.8607 12.8017 21.8198 12.7669C21.7632 12.7185 21.6792 12.6885 21.5795 12.6881C21.3001 12.6866 21.0515 12.5906 20.8696 12.4357C20.6686 12.2647 20.5478 12.0244 20.5478 11.7551C20.5478 11.4866 20.6716 11.2466 20.8718 11.076C20.9705 10.992 21.0875 10.9252 21.2168 10.881V10.7179ZM23.6543 14.3977C24.185 13.8671 24.5131 13.134 24.5131 12.3247C24.5131 11.5151 24.185 10.782 23.6543 10.2517C23.1237 9.72112 22.391 9.393 21.5813 9.393C20.7717 9.393 20.0386 9.72112 19.5083 10.2517C18.9777 10.7824 18.6496 11.5155 18.6496 12.3247C18.6496 13.1344 18.9777 13.8671 19.5083 14.3977C20.039 14.9284 20.7721 15.2565 21.5813 15.2565C22.3906 15.2565 23.1237 14.9284 23.6543 14.3977ZM21.581 14.5279C22.1896 14.5279 22.7401 14.2811 23.1391 13.8825C23.5377 13.4839 23.7845 12.9326 23.7845 12.3244C23.7845 11.7157 23.5377 11.1649 23.1391 10.7662C22.7405 10.3676 22.1896 10.1209 21.581 10.1209C20.9723 10.1209 20.4215 10.3676 20.0228 10.7662C19.6242 11.1649 19.3775 11.7157 19.3775 12.3244C19.3775 12.933 19.6242 13.4839 20.0228 13.8825C20.4218 14.2815 20.9727 14.5279 21.581 14.5279ZM17.6405 14.052H4.14947C3.95259 14.052 3.77709 14.1169 3.65259 14.2211C3.54609 14.3104 3.48047 14.4292 3.48047 14.5552V16.9511C3.48047 17.0775 3.54647 17.196 3.65259 17.2856C3.77709 17.3902 3.95259 17.4547 4.14947 17.4547H5.36109H30.6383H31.85C32.0468 17.4547 32.2223 17.3899 32.3468 17.2856C32.4533 17.1964 32.5193 17.0779 32.5193 16.9511V14.5552C32.5193 14.4289 32.4533 14.3104 32.3468 14.2211C32.2223 14.1165 32.0468 14.052 31.85 14.052H25.5215C25.3047 14.5455 24.9983 14.9906 24.6226 15.3664C23.8441 16.1449 22.769 16.6264 21.581 16.6264C20.3933 16.6264 19.3178 16.1449 18.5393 15.3664C18.164 14.9902 17.8572 14.5455 17.6405 14.052ZM21.581 15.8977C20.5943 15.8977 19.7011 15.498 19.0546 14.8511C18.4081 14.2046 18.0083 13.3114 18.0083 12.3247C18.0083 11.3381 18.4081 10.4449 19.0546 9.79837C19.7011 9.15187 20.5943 8.75212 21.581 8.75212C22.5676 8.75212 23.4608 9.15187 24.1073 9.79837C24.7538 10.4449 25.154 11.3381 25.154 12.3247C25.154 13.3114 24.7538 14.2046 24.1073 14.8511C23.4612 15.4976 22.568 15.8977 21.581 15.8977Z" fill="white"/>
</svg>
