<svg width="50" height="50" viewBox="0 0 50 50" fill="none" xmlns="http://www.w3.org/2000/svg">
<circle cx="25" cy="25" r="25" fill="#FF7900"/>
<path fill-rule="evenodd" clip-rule="evenodd" d="M35.2129 15.8014L37.211 13.8032C37.5563 13.4579 37.5563 12.8961 37.211 12.5502C37.045 12.3841 36.8225 12.2925 36.5848 12.2925C36.3471 12.2925 36.1246 12.3841 35.9586 12.5502L35.4944 13.0137C35.42 13.0887 35.3184 13.1305 35.2129 13.1305C35.1073 13.1305 35.0057 13.0887 34.9313 13.0137L34.4671 12.5502C34.3011 12.3841 34.0786 12.2925 33.8409 12.2925C33.6032 12.2925 33.3807 12.3841 33.2147 12.5502C32.8694 12.8955 32.8694 13.4573 33.2147 13.8032L35.2129 15.8014ZM18.2009 36.898C18.2009 34.5977 19.9793 32.7064 22.2331 32.5252C21.6016 31.4115 20.4069 30.6943 19.1067 30.6943H14.3188C12.3386 30.6943 10.7275 32.3054 10.7275 34.2862V37.1484C10.7275 37.5508 11.0543 37.8775 11.4567 37.8775H13.5691V34.7929C13.5691 34.5731 13.747 34.3945 13.9675 34.3945C14.1873 34.3945 14.3659 34.5731 14.3659 34.7929V37.8775H18.2009V36.898ZM30.9682 36.898V39.7601C30.9682 40.1619 30.6414 40.4893 30.239 40.4893H28.1273V37.3536C28.1273 37.1331 27.9487 36.9551 27.7289 36.9551C27.5084 36.9551 27.3304 37.1331 27.3304 37.3536V40.4893H22.6362V37.3536C22.6362 37.1331 22.4575 36.9551 22.2377 36.9551C22.0173 36.9551 21.8393 37.1331 21.8393 37.3536V40.4893H19.7269C19.3245 40.4893 18.9978 40.1619 18.9978 39.7601V36.898C18.9978 34.9171 20.6088 33.3061 22.589 33.3061H27.3769C29.3578 33.3061 30.9682 34.9171 30.9682 36.898ZM35.6478 30.6943H30.8599C29.5597 30.6943 28.365 31.4109 27.7335 32.5252C29.9873 32.7071 31.7657 34.5977 31.7657 36.898V37.8775H35.6007V34.7929C35.6007 34.5731 35.7793 34.3945 35.9991 34.3945C36.2196 34.3945 36.3975 34.5731 36.3975 34.7929V37.8775H38.5099C38.9117 37.8775 39.2391 37.5508 39.2391 37.1484V34.2862C39.2384 32.3054 37.628 30.6943 35.6478 30.6943ZM33.2532 23.458C31.5127 23.458 30.0969 24.8738 30.0969 26.6143C30.0969 28.3548 31.5127 29.7706 33.2532 29.7706C34.993 29.7706 36.4095 28.3548 36.4095 26.6143C36.4102 24.8738 34.9937 23.458 33.2532 23.458ZM24.983 26.0698C26.7235 26.0698 28.1393 27.4856 28.1393 29.2261C28.1393 30.9666 26.7235 32.3824 24.983 32.3824C23.2425 32.3824 21.8267 30.9666 21.8267 29.2261C21.8273 27.4856 23.2425 26.0698 24.983 26.0698ZM16.7134 23.458C14.9736 23.458 13.5571 24.8738 13.5571 26.6143C13.5571 28.3548 14.9736 29.7706 16.7134 29.7706C18.4539 29.7706 19.8697 28.3548 19.8697 26.6143C19.869 24.8738 18.4539 23.458 16.7134 23.458ZM17.6876 14.3664L15.4072 16.6461C15.3328 16.7211 15.2312 16.763 15.1256 16.763C15.02 16.763 14.9184 16.7211 14.8441 16.6461L12.5637 14.3664C11.9076 13.7103 11.9076 12.6425 12.5637 11.9864C12.8804 11.6696 13.3034 11.495 13.7537 11.495C14.2039 11.495 14.6269 11.6696 14.9437 11.9864L15.1256 12.1683L15.3076 11.9864C15.6243 11.6696 16.0473 11.495 16.4976 11.495C16.9478 11.495 17.3708 11.6696 17.6876 11.9864C18.3443 12.6431 18.3443 13.7103 17.6876 14.3664ZM18.5356 17.6023V10.5181C18.5356 10.3621 18.5661 10.2133 18.6186 10.0752H11.7449C11.5045 10.0752 11.3086 10.2744 11.3086 10.5181V17.6023C11.3086 17.8467 11.5045 18.0459 11.7449 18.0459H14.5884C14.7066 18.0459 14.8195 18.0991 14.8945 18.19C14.9702 18.2817 15.0014 18.4019 14.9795 18.5181L14.7478 19.7499L16.5939 18.1436C16.6663 18.0805 16.7592 18.0459 16.8548 18.0459H18.6193C18.5668 17.9078 18.5356 17.7591 18.5356 17.6023ZM15.1256 15.8014L17.1238 13.8032C17.4698 13.4579 17.4698 12.8961 17.1238 12.5502C16.9578 12.3841 16.7353 12.2925 16.4976 12.2925C16.2598 12.2925 16.0374 12.3841 15.8714 12.5502L15.4072 13.0137C15.2518 13.1691 14.9995 13.1691 14.8441 13.0137L14.3799 12.5502C14.2139 12.3841 13.9914 12.2925 13.7537 12.2925C13.5159 12.2925 13.2935 12.3841 13.1275 12.5502C12.7821 12.8955 12.7821 13.4573 13.1275 13.8032L15.1256 15.8014ZM24.983 16.2516L27.44 13.7946C27.6552 13.5795 27.7734 13.2919 27.7734 12.9851C27.7734 12.6783 27.6552 12.3908 27.44 12.1756C27.2255 11.9605 26.938 11.8423 26.6312 11.8423C26.3244 11.8423 26.0368 11.9605 25.8217 12.1756L25.2645 12.7328C25.1902 12.8078 25.0886 12.8496 24.983 12.8496C24.8774 12.8496 24.7758 12.8078 24.7014 12.7328L24.1443 12.1756C23.9211 11.9525 23.6276 11.8409 23.3348 11.8409C23.0419 11.8409 22.7491 11.9525 22.5253 12.1756C22.3108 12.3908 22.1926 12.6777 22.1926 12.9851C22.1926 13.2919 22.3108 13.5795 22.5253 13.7946L24.983 16.2516ZM30.6335 17.6023C30.6335 17.8467 30.4382 18.0453 30.1979 18.0459H30.1972H26.2268C26.0534 18.0459 25.9 18.1575 25.8476 18.3222L24.983 21.011L24.1184 18.3222C24.0659 18.1575 23.9125 18.0459 23.7392 18.0459H19.7687H19.7681C19.5277 18.0459 19.3325 17.8467 19.3325 17.6023V10.5181C19.3325 10.2737 19.5284 10.0752 19.7687 10.0752H30.1972C30.4376 10.0752 30.6335 10.2744 30.6335 10.5181V17.6023ZM28.0038 14.3577L25.2645 17.097C25.1902 17.1714 25.0886 17.2139 24.983 17.2139C24.8774 17.2139 24.7758 17.172 24.7014 17.097L21.9621 14.3577C21.5969 13.9925 21.3957 13.5051 21.3957 12.9851C21.3957 12.4652 21.5969 11.9777 21.9621 11.6125C22.7192 10.8555 23.9504 10.8555 24.7074 11.6125L24.983 11.8881L25.2586 11.6125C25.6238 11.2473 26.1112 11.0454 26.6312 11.0454C27.1511 11.0454 27.6386 11.2466 28.0038 11.6125C28.369 11.9784 28.5702 12.4652 28.5702 12.9851C28.5702 13.5044 28.369 13.9918 28.0038 14.3577ZM34.9313 16.6468L32.6509 14.367C31.9948 13.7109 31.9948 12.6431 32.6509 11.987C32.9677 11.6703 33.3907 11.4956 33.8409 11.4956C34.2911 11.4956 34.7141 11.6703 35.0309 11.987L35.2129 12.169L35.3948 11.987C36.0509 11.3309 37.1187 11.3309 37.7748 11.987C38.0916 12.3038 38.2662 12.7261 38.2662 13.177C38.2662 13.6273 38.0916 14.0503 37.7748 14.367L35.4944 16.6468C35.42 16.7218 35.3184 16.7636 35.2129 16.7636C35.1066 16.763 35.0057 16.7211 34.9313 16.6468ZM31.431 10.5181C31.431 10.3621 31.4005 10.2133 31.348 10.0752H38.2217C38.4621 10.0752 38.658 10.2744 38.658 10.5181V17.6023C38.658 17.8467 38.4621 18.0459 38.2217 18.0459H35.3782C35.26 18.0459 35.1478 18.0991 35.0721 18.19C34.9964 18.2817 34.9652 18.4019 34.9871 18.5181L35.2195 19.7499L33.3727 18.1436C33.3004 18.0805 33.2074 18.0459 33.1118 18.0459H31.3473C31.3998 17.9078 31.4303 17.7591 31.4303 17.6023V10.5181H31.431Z" fill="white"/>
</svg>
