<svg width="50" height="50" viewBox="0 0 50 50" fill="none" xmlns="http://www.w3.org/2000/svg">
<circle cx="25" cy="25" r="25" fill="#FF7900"/>
<g clip-path="url(#clip0_117_45907)">
<path d="M31.3085 28.4857C31.258 28.7835 30.976 28.984 30.6778 28.9336C29.054 28.6583 27.5635 28.7002 26.2479 29.0578C26.1999 29.0708 26.1516 29.077 26.1041 29.077C25.8634 29.077 25.6428 28.9169 25.5767 28.6735C25.4974 28.382 25.6694 28.0815 25.9609 28.0024C27.4308 27.6028 29.0793 27.5534 30.8606 27.8552C31.1584 27.9056 31.3589 28.1879 31.3085 28.4857ZM41.9316 22.6824V28.3177C41.9316 28.6197 41.6868 28.8646 41.3848 28.8646H38.999C38.6299 30.4641 38.0029 31.9768 37.1305 33.3724L38.8184 35.0603C38.921 35.1629 38.9786 35.302 38.9786 35.447C38.9786 35.5921 38.921 35.7312 38.8184 35.8337L34.8336 39.8185C34.62 40.032 34.2738 40.032 34.0602 39.8185L32.3725 38.1308C30.9775 39.0029 29.4648 39.6299 27.8646 39.9992V42.3848C27.8646 42.6868 27.6197 42.9316 27.3177 42.9316H21.6824C21.3804 42.9316 21.1355 42.6868 21.1355 42.3848V39.9992C19.5359 39.6301 18.0233 39.003 16.6277 38.1307L14.9398 39.8186C14.7261 40.0322 14.3799 40.0322 14.1664 39.8186L10.1817 35.8337C9.9681 35.6202 9.9681 35.274 10.1817 35.0604L11.8694 33.3726C10.9972 31.9775 10.3703 30.4649 10.001 28.8646H7.61523C7.31322 28.8646 7.06836 28.6198 7.06836 28.3178V22.6824C7.06836 22.3804 7.31322 22.1356 7.61523 22.1356H10.0008C10.3699 20.5361 10.9969 19.0234 11.8694 17.6277L10.1814 15.9397C10.0789 15.8371 10.0213 15.698 10.0213 15.553C10.0213 15.4079 10.0789 15.2688 10.1815 15.1663L14.1663 11.1815C14.3798 10.968 14.726 10.968 14.9397 11.1815L16.6275 12.8694C18.0225 11.9972 19.5351 11.3703 21.1354 11.001V8.61523C21.1354 8.31322 21.3802 8.06836 21.6822 8.06836H27.3176C27.6196 8.06836 27.8644 8.31322 27.8644 8.61523V11.0011C29.4638 11.3702 30.9766 11.9972 32.3722 12.8696L34.0601 11.1816C34.1627 11.079 34.3018 11.0214 34.4468 11.0214C34.5919 11.0214 34.7309 11.079 34.8335 11.1816L38.8183 15.1664C39.0318 15.3799 39.0318 15.7262 38.8183 15.9397L37.1304 17.6277C38.0025 19.0225 38.6294 20.5351 38.9988 22.1354H41.3848C41.6868 22.1355 41.9316 22.3803 41.9316 22.6824ZM40.8379 23.2292H38.5572C38.2964 23.2292 38.0719 23.0451 38.0209 22.7893C37.6681 21.0201 36.9802 19.3607 35.9765 17.8571C35.8318 17.6402 35.8603 17.3512 36.0447 17.1668L37.6583 15.5532L34.447 12.3417L32.8334 13.9553C32.649 14.1398 32.3601 14.1683 32.1431 14.0236C30.6384 13.0195 28.9789 12.3317 27.2108 11.9792C26.955 11.9282 26.7708 11.7037 26.7708 11.4429V9.16211H22.2292V11.4428C22.2292 11.7036 22.045 11.9281 21.7892 11.9791C20.02 12.3319 18.3605 13.0197 16.8569 14.0233C16.6398 14.1683 16.351 14.1396 16.1665 13.9552L14.553 12.3416L11.3415 15.553L12.9551 17.1665C13.1394 17.3509 13.1679 17.6398 13.0232 17.8567C12.0192 19.3615 11.3313 21.0211 10.9789 22.7892C10.9279 23.045 10.7034 23.2292 10.4425 23.2292H8.16211V27.7708H10.4426C10.7034 27.7708 10.9279 27.9549 10.9789 28.2107C11.3317 29.9799 12.0195 31.6394 13.0233 33.1433C13.168 33.3602 13.1395 33.6492 12.9551 33.8336L11.3416 35.447L14.553 38.6584L16.1666 37.0449C16.3511 36.8605 16.6399 36.832 16.8569 36.9767C18.3616 37.9808 20.0211 38.6686 21.7893 39.0211C22.0451 39.0721 22.2293 39.2966 22.2293 39.5574V41.8379H26.7709V39.5574C26.7709 39.2966 26.9551 39.0721 27.2109 39.0211C28.9801 38.6683 30.6396 37.9804 32.1433 36.9767C32.3603 36.8319 32.6491 36.8605 32.8336 37.0449L34.4471 38.6584L37.6586 35.447L36.045 33.8335C35.8606 33.6491 35.8321 33.3602 35.9769 33.1433C36.9809 31.6386 37.6687 29.979 38.0211 28.2109C38.0721 27.9551 38.2966 27.7709 38.5575 27.7709H40.8379V23.2292ZM36.0876 25.5C36.0876 31.8894 30.8894 37.0876 24.5 37.0876C18.1106 37.0876 12.9124 31.8893 12.9124 25.5C12.9124 19.1107 18.1106 13.9124 24.5 13.9124C30.8894 13.9124 36.0876 19.1106 36.0876 25.5ZM31.8268 30.167V20.6671C29.1143 19.9395 26.837 20.0809 25.0469 21.0869V30.4885C26.929 29.6194 29.2032 29.5112 31.8268 30.167ZM23.9531 21.0869C22.1629 20.0809 19.8857 19.9395 17.1732 20.6671V30.167C18.3003 29.8853 19.3632 29.7445 20.3581 29.7445C21.679 29.7445 22.8796 29.9935 23.9531 30.4892V21.0869ZM23.064 23.295C21.599 22.821 19.9388 22.7539 18.1292 23.0959C17.8324 23.1519 17.6373 23.438 17.6934 23.7348C17.7494 24.0315 18.035 24.2267 18.3323 24.1705C19.9827 23.8587 21.4204 23.9127 22.7273 24.3356C22.7832 24.3537 22.84 24.3623 22.8958 24.3623C23.1266 24.3623 23.3411 24.215 23.416 23.9837C23.5089 23.6963 23.3514 23.388 23.064 23.295ZM30.8641 26.2686C29.075 25.9535 27.4226 26.0089 25.9528 26.4333C25.6626 26.5171 25.4953 26.8202 25.579 27.1104C25.6482 27.3499 25.8668 27.5057 26.1042 27.5057C26.1544 27.5057 26.2054 27.4988 26.2562 27.4841C27.5644 27.1064 29.051 27.0598 30.6744 27.3458C30.9721 27.3982 31.2555 27.1995 31.3079 26.9021C31.3601 26.6046 31.1615 26.321 30.8641 26.2686ZM30.8708 23.0959C29.0611 22.754 27.4008 22.821 25.936 23.2951C25.6486 23.388 25.4911 23.6964 25.5841 23.9837C25.659 24.2151 25.8735 24.3624 26.1043 24.3624C26.16 24.3624 26.2168 24.3538 26.2728 24.3356C27.5796 23.9128 29.0171 23.8588 30.6677 24.1706C30.9647 24.2266 31.2505 24.0315 31.3066 23.7348C31.3627 23.438 31.1676 23.152 30.8708 23.0959ZM30.874 21.5097C29.0262 21.1491 27.4083 21.2198 25.9276 21.7257C25.6418 21.8234 25.4893 22.1343 25.587 22.4201C25.6646 22.6473 25.877 22.7903 26.1044 22.7903C26.163 22.7903 26.2227 22.7808 26.2813 22.7608C27.5759 22.3184 29.0097 22.2603 30.6645 22.5833C30.9611 22.6409 31.2482 22.4477 31.306 22.1513C31.3638 21.8548 31.1704 21.5676 30.874 21.5097ZM17.694 22.1512C17.7518 22.4476 18.0389 22.6409 18.3355 22.5832C19.9903 22.2602 21.4241 22.3183 22.7188 22.7607C22.7773 22.7807 22.837 22.7902 22.8957 22.7902C23.123 22.7902 23.3355 22.6472 23.4131 22.42C23.5108 22.1342 23.3582 21.8234 23.0725 21.7257C21.5917 21.2197 19.9738 21.1491 18.126 21.5097C17.8296 21.5676 17.6362 21.8548 17.694 22.1512ZM30.8675 24.6821C29.0691 24.3537 27.4128 24.415 25.9444 24.8642C25.6555 24.9525 25.4931 25.2583 25.5814 25.5471C25.6535 25.7826 25.8701 25.9342 26.1041 25.9342C26.1571 25.9342 26.211 25.9264 26.2644 25.9101C27.5637 25.5126 29.0462 25.4614 30.6709 25.7581C30.9685 25.8124 31.253 25.6155 31.3072 25.3184C31.3614 25.0212 31.1646 24.7364 30.8675 24.6821ZM23.0556 24.8642C21.5874 24.415 19.9312 24.3538 18.1325 24.6821C17.8354 24.7364 17.6385 25.0212 17.6927 25.3184C17.747 25.6155 18.0314 25.8126 18.329 25.7581C19.9537 25.4614 21.4362 25.5125 22.7356 25.9101C22.7889 25.9264 22.8428 25.9342 22.8958 25.9342C23.1299 25.9342 23.3465 25.7826 23.4186 25.5471C23.5069 25.2583 23.3445 24.9525 23.0556 24.8642ZM23.0391 28.0023C21.5691 27.6027 19.9209 27.5532 18.1394 27.8551C17.8417 27.9056 17.6411 28.1879 17.6915 28.4857C17.7421 28.7835 18.0248 28.984 18.3222 28.9336C19.9459 28.6584 21.4365 28.7002 22.7522 29.0578C22.8002 29.0708 22.8485 29.077 22.896 29.077C23.1367 29.077 23.3572 28.9169 23.4234 28.6734C23.5026 28.382 23.3306 28.0815 23.0391 28.0023ZM23.0473 26.4333C21.5774 26.0089 19.9249 25.9536 18.1359 26.2686C17.8384 26.321 17.6398 26.6046 17.6922 26.9021C17.7446 27.1996 18.0281 27.3981 18.3256 27.3458C19.949 27.0598 21.4357 27.1064 22.744 27.4841C22.7946 27.4988 22.8457 27.5057 22.8959 27.5057C23.1334 27.5057 23.352 27.3499 23.4212 27.1104C23.5048 26.8202 23.3375 26.5171 23.0473 26.4333Z" fill="white"/>
</g>
<defs>
<clipPath id="clip0_117_45907">
<rect width="35" height="35" fill="white" transform="translate(7 8)"/>
</clipPath>
</defs>
</svg>
