<svg width="60" height="60" viewBox="0 0 60 60" fill="none" xmlns="http://www.w3.org/2000/svg">
<circle cx="30" cy="30" r="30" fill="#FF7900"/>
<path fill-rule="evenodd" clip-rule="evenodd" d="M16.8265 39.7465V39.7509C15.4952 41.0629 14.7132 42.8324 14.639 44.7001C14.6287 45.002 14.8651 45.255 15.1669 45.2652C15.1738 45.2655 15.1807 45.2656 15.1875 45.2656H28.8484C29.1505 45.2658 29.3955 45.0211 29.3957 44.7191C29.3957 44.7119 29.3956 44.7046 29.3953 44.6974C29.3422 43.3379 28.9122 42.0199 28.1534 40.8906H28.1561C27.7773 40.3884 27.197 39.7301 26.3629 39.1117C25.5861 38.5357 24.8437 38.1829 24.2799 37.9654C25.9856 36.7162 26.3556 34.3207 25.1064 32.6151C23.8572 30.9094 21.4617 30.5393 19.7561 31.7885C18.0504 33.0377 17.6804 35.4332 18.9296 37.1388C19.1612 37.4551 19.4399 37.7338 19.7561 37.9654C19.3353 38.1309 18.8585 38.3513 18.3545 38.6466C17.7321 39.0114 17.2251 39.3986 16.8265 39.7465Z" fill="white"/>
<path fill-rule="evenodd" clip-rule="evenodd" d="M45.8125 15.7344H15.1875C14.8855 15.7344 14.6406 15.9792 14.6406 16.2812V20.1094H46.3594V16.2812C46.3594 15.9792 46.1145 15.7344 45.8125 15.7344Z" fill="white"/>
<path d="M31.0469 34.3281H32.1406V37.6094H31.0469V34.3281Z" fill="white"/>
<path d="M39.7969 29.9531H40.8906V37.6094H39.7969V29.9531Z" fill="white"/>
<path d="M35.4219 32.1406H36.5156V37.6094H35.4219V32.1406Z" fill="white"/>
<path d="M20.0098 23.6394H28.9588V28.6105H20.0098V23.6394Z" fill="white"/>
<path fill-rule="evenodd" clip-rule="evenodd" d="M16.8281 38.2919C17.1688 38.0278 17.5292 37.7901 17.906 37.5809C16.4121 35.31 17.0421 32.2579 19.3131 30.7641C21.584 29.2702 24.6361 29.9001 26.1299 32.1711C27.2098 33.8128 27.2098 35.9394 26.1299 37.581C27.5191 38.3544 28.6644 39.5007 29.4363 40.8907H43.625C43.927 40.8907 44.1719 40.6458 44.1719 40.3438V21.2031H16.8281V38.2919ZM37.6094 38.1562C37.6094 38.4583 37.3645 38.7031 37.0625 38.7031H34.875C34.573 38.7031 34.3281 38.4583 34.3281 38.1562V31.5938C34.3281 31.2917 34.573 31.0469 34.875 31.0469H37.0625C37.3645 31.0469 37.6094 31.2917 37.6094 31.5938V38.1562ZM41.9844 38.1562C41.9844 38.4583 41.7395 38.7031 41.4375 38.7031H39.25C38.948 38.7031 38.7031 38.4583 38.7031 38.1562V29.4062C38.7031 29.1042 38.948 28.8594 39.25 28.8594H41.4375C41.7395 28.8594 41.9844 29.1042 41.9844 29.4062V38.1562ZM32.6875 22.6447H41.4375C41.7395 22.6447 41.9844 22.8896 41.9844 23.1916C41.9844 23.4936 41.7395 23.7384 41.4375 23.7384H32.6875C32.3855 23.7384 32.1406 23.4936 32.1406 23.1916C32.1406 22.8896 32.3855 22.6447 32.6875 22.6447ZM32.6875 24.8322H41.4375C41.7395 24.8322 41.9844 25.0771 41.9844 25.3791C41.9844 25.6811 41.7395 25.9259 41.4375 25.9259H32.6875C32.3855 25.9259 32.1406 25.6811 32.1406 25.3791C32.1406 25.0771 32.3855 24.8322 32.6875 24.8322ZM32.6875 27.0197H41.4375C41.7395 27.0197 41.9844 27.2646 41.9844 27.5666C41.9844 27.8686 41.7395 28.1134 41.4375 28.1134H32.6875C32.3855 28.1134 32.1406 27.8686 32.1406 27.5666C32.1406 27.2646 32.3855 27.0197 32.6875 27.0197ZM30.5 33.2344H32.6875C32.9895 33.2344 33.2344 33.4792 33.2344 33.7812V38.1562C33.2344 38.4583 32.9895 38.7031 32.6875 38.7031H30.5C30.198 38.7031 29.9531 38.4583 29.9531 38.1562V33.7812C29.9531 33.4792 30.198 33.2344 30.5 33.2344ZM19.0156 23.1418C19.0156 22.8673 19.2382 22.6447 19.5127 22.6447H29.456C29.7305 22.6447 29.9531 22.8673 29.9531 23.1418V29.1082C29.9531 29.3827 29.7305 29.6053 29.456 29.6053H19.5127C19.2382 29.6053 19.0156 29.3827 19.0156 29.1082V23.1418Z" fill="white"/>
</svg>
