<svg width="50" height="50" viewBox="0 0 50 50" fill="none" xmlns="http://www.w3.org/2000/svg">
<circle cx="25" cy="25" r="25" fill="#FF7900"/>
<path d="M40.151 16.7344H34.2656V10.849L40.151 16.7344ZM15.7031 26.0156C15.7031 24.5918 16.8574 23.4375 18.2812 23.4375C19.7051 23.4375 20.8594 24.5918 20.8594 26.0156V27.0469H23.4375V26.0156C23.4375 23.1726 21.1245 20.8594 18.2812 20.8594C15.438 20.8594 13.125 23.1726 13.125 26.0156V27.0469H15.7031V26.0156ZM18.2812 32.7188C17.997 32.7188 17.7656 32.9499 17.7656 33.2344C17.7656 33.5189 17.997 33.75 18.2812 33.75C18.5655 33.75 18.7969 33.5189 18.7969 33.2344C18.7969 32.9499 18.5655 32.7188 18.2812 32.7188ZM26.0156 30.6562V37.875C26.0156 39.2965 24.859 40.4531 23.4375 40.4531H13.125C11.7035 40.4531 10.5469 39.2965 10.5469 37.875V30.6562C10.5469 29.2348 11.7035 28.0781 13.125 28.0781H23.4375C24.859 28.0781 26.0156 29.2348 26.0156 30.6562ZM19.8281 33.2344C19.8281 32.3814 19.1342 31.6875 18.2812 31.6875C17.4283 31.6875 16.7344 32.3814 16.7344 33.2344C16.7344 33.9057 17.1667 34.4727 17.7656 34.6862V36.3281C17.7656 36.6131 17.9965 36.8438 18.2812 36.8438C18.566 36.8438 18.7969 36.6131 18.7969 36.3281V34.6862C19.3958 34.4727 19.8281 33.9057 19.8281 33.2344ZM40.4531 17.7656V37.875C40.4531 39.2965 39.2965 40.4531 37.875 40.4531H25.9586C26.6291 39.7974 27.0469 38.8845 27.0469 37.875V30.6562C27.0469 29.0243 25.958 27.6415 24.4688 27.1969V26.0156C24.4688 22.6036 21.693 19.8281 18.2812 19.8281C18.1072 19.8281 17.9361 19.8401 17.7656 19.8543V13.125C17.7656 11.7035 18.9223 10.5469 20.3438 10.5469H33.2344V17.25C33.2344 17.535 33.465 17.7656 33.75 17.7656H40.4531ZM30.6562 17.7656C30.9412 17.7656 31.1719 17.535 31.1719 17.25C31.1719 16.965 30.9412 16.7344 30.6562 16.7344H21.375C21.0903 16.7344 20.8594 16.965 20.8594 17.25C20.8594 17.535 21.0903 17.7656 21.375 17.7656H30.6562ZM37.3594 35.8125C37.3594 35.5275 37.1287 35.2969 36.8438 35.2969H29.625C29.34 35.2969 29.1094 35.5275 29.1094 35.8125C29.1094 36.0975 29.34 36.3281 29.625 36.3281H36.8438C37.1287 36.3281 37.3594 36.0975 37.3594 35.8125ZM37.3594 32.7188C37.3594 32.4338 37.1287 32.2031 36.8438 32.2031H29.625C29.34 32.2031 29.1094 32.4338 29.1094 32.7188C29.1094 33.0037 29.34 33.2344 29.625 33.2344H36.8438C37.1287 33.2344 37.3594 33.0037 37.3594 32.7188ZM37.3594 29.625C37.3594 29.34 37.1287 29.1094 36.8438 29.1094H29.625C29.34 29.1094 29.1094 29.34 29.1094 29.625C29.1094 29.91 29.34 30.1406 29.625 30.1406H36.8438C37.1287 30.1406 37.3594 29.91 37.3594 29.625ZM37.3594 26.5312C37.3594 26.2463 37.1287 26.0156 36.8438 26.0156H27.5625C27.2775 26.0156 27.0469 26.2463 27.0469 26.5312C27.0469 26.8162 27.2775 27.0469 27.5625 27.0469H36.8438C37.1287 27.0469 37.3594 26.8162 37.3594 26.5312ZM37.3594 23.4375C37.3594 23.1525 37.1287 22.9219 36.8438 22.9219H26.5312C26.2465 22.9219 26.0156 23.1525 26.0156 23.4375C26.0156 23.7225 26.2465 23.9531 26.5312 23.9531H36.8438C37.1287 23.9531 37.3594 23.7225 37.3594 23.4375ZM37.3594 20.3438C37.3594 20.0588 37.1287 19.8281 36.8438 19.8281H24.9844C24.6996 19.8281 24.4688 20.0588 24.4688 20.3438C24.4688 20.6287 24.6996 20.8594 24.9844 20.8594H36.8438C37.1287 20.8594 37.3594 20.6287 37.3594 20.3438Z" fill="white"/>
</svg>
