<svg width="23" height="21" viewBox="0 0 23 21" fill="#04EB84" xmlns="http://www.w3.org/2000/svg">
<path d="M23.0004 10.5L20.4742 7.72565L20.8698 4.01145L17.1758 3.23792L15.2916 0L11.8429 1.52464L11.3774 10.5L11.8429 19.4754L15.2916 21L17.1758 17.7621L20.8698 16.9886L20.4742 13.2743L23.0004 10.5Z" fill="#04EB84"/>
<path d="M8.39433 0L6.51012 3.23792L2.81618 4.01149L3.21171 7.72565L0.685547 10.5L3.21171 13.2743L2.81618 16.9886L6.51012 17.7621L8.39438 21L11.8431 19.4754V1.52464L8.39433 0Z" fill="#04EB84"/>
<path d="M16.5219 8.08497L15.5452 7.22266L11.8444 11.3241L11.3789 12.3433L11.8444 13.2687L16.5219 8.08497Z" fill="#04EB84"/>
<path d="M7.95493 9.52734L7.0293 10.443L10.9211 14.2928L11.8442 13.2697V11.325L10.8671 12.4079L7.95493 9.52734Z" fill="#04EB84"/>
</svg>
